<svg width="75" height="47" viewBox="0 0 75 47" fill="none" xmlns="http://www.w3.org/2000/svg">
<path d="M17.0509 17.6136C16.8332 17.6419 16.6277 17.49 16.6014 17.2815L15.0446 4.75745C15.0183 4.54897 15.1807 4.34898 15.3984 4.31973L18.7982 3.87258C19.0168 3.84428 19.2223 3.99616 19.2486 4.20464L20.8054 16.7287C20.8317 16.9372 20.6693 17.1381 20.4507 17.1664L17.0509 17.6136ZM25.5134 16.4014C25.2938 16.4146 25.1042 16.2599 25.0779 16.0514L24.772 11.3978L21.1845 11.7081C20.9649 11.7195 20.7754 11.5657 20.751 11.3732L20.7472 11.3402L20.5323 8.51675C20.5248 8.32241 20.6872 8.12148 20.888 8.09506L20.9218 8.09035L24.5112 7.79696L24.209 3.45278C24.2024 3.25751 24.3469 3.0594 24.5646 3.0311L24.5984 3.02639L27.987 2.75941C28.2047 2.73111 28.3961 2.90092 28.4224 3.1094L29.2904 15.708C29.2998 15.9193 29.1356 16.1042 28.9179 16.1325L25.5134 16.4004V16.4014Z" fill="white"/>
<path d="M17.004 20.3729C16.3095 20.3729 15.6217 20.1408 15.0699 19.7116C14.4065 19.1965 13.9842 18.455 13.881 17.6249L12.3232 5.09989C12.1112 3.38769 13.3311 1.81227 15.0418 1.58681L18.4416 1.13966C19.2655 1.03117 20.1176 1.26135 20.7782 1.7736C21.0982 2.0217 21.3619 2.32357 21.5618 2.6613C21.8686 1.42833 22.8934 0.472701 24.2099 0.299123L24.3854 0.279312L27.7346 0.0151711C28.5256 -0.0631278 29.3073 0.163279 29.9426 0.656656C30.6014 1.1689 31.0396 1.9368 31.1438 2.76601L31.1588 2.91978L32.0268 15.5184C32.1056 17.2089 30.896 18.6522 29.2773 18.8664L29.1328 18.8814L25.6729 19.1531C24.727 19.2097 23.8336 18.8305 23.2143 18.1862C22.7592 19.0871 21.8818 19.7569 20.8101 19.8993L17.4075 20.3465C17.2742 20.3644 17.14 20.3729 17.0058 20.3729H17.004ZM18.0831 17.0683C18.0831 17.0683 18.0831 17.0711 18.0831 17.0721V17.0683Z" fill="black"/>
<path d="M33.2537 17.1181C30.3838 17.1181 28.9432 15.1019 28.9432 13.1245C28.9432 11.2649 30.2205 9.31388 33.1016 9.31388C36.2371 9.31388 36.376 12.1876 36.376 12.6169C36.376 13.215 36.1357 13.7094 35.3896 13.9698C34.7956 14.1773 33.8599 14.3208 33.203 14.3472C33.0003 14.3472 32.9374 14.2557 32.8867 14.099C32.7347 13.6698 32.4944 12.8254 32.4944 12.7735C32.4944 12.6301 32.5958 12.565 32.76 12.5254C33.4179 12.3697 33.5061 12.3442 33.5061 12.1621C33.5061 12.0442 33.2659 11.6282 32.7356 11.6282C32.1284 11.6282 31.6235 12.1744 31.6235 12.9801C31.6235 13.9037 32.2805 14.9444 33.8609 14.9444C33.9491 14.9444 34.0504 14.9444 34.1396 14.9302H34.1649C34.3423 14.9302 34.5563 15.0481 34.5563 15.2689C34.5563 15.3991 34.2278 16.2831 34.0382 16.7247C33.9378 16.9332 33.7726 17.1152 33.4066 17.1152H33.2546L33.2537 17.1181Z" fill="white"/>
<path d="M33.4053 19.8739H33.2533C28.672 19.8739 26.2003 16.3966 26.2003 13.1241C26.2003 9.8516 28.5707 6.55738 33.1013 6.55738C37.051 6.55738 39.1173 9.60538 39.1173 12.6166C39.1173 14.1467 38.4013 15.4193 37.1608 16.1674C37.0575 16.5466 36.8746 17.074 36.5546 17.8192L36.5039 17.9296C35.9165 19.1465 34.7575 19.8729 33.4053 19.8729V19.8739Z" fill="black"/>
<path d="M36.4044 16.857C36.2655 16.857 36.152 16.741 36.152 16.5966V5.9725C36.152 5.81684 36.2655 5.69987 36.4044 5.69987H38.9447C39.0835 5.69987 39.1971 5.81684 39.1971 5.9725V16.5966C39.1971 16.741 39.0835 16.857 38.9447 16.857H36.4044Z" fill="white"/>
<path d="M38.9456 19.6135H36.4054C34.7538 19.6135 33.41 18.2598 33.41 16.5966V5.9725C33.41 4.30181 34.7538 2.94337 36.4054 2.94337H38.9456C40.5972 2.94337 41.94 4.30181 41.94 5.9725V16.5966C41.94 18.2607 40.5962 19.6135 38.9456 19.6135Z" fill="black"/>
<path d="M43.8647 16.9221H43.8394C43.7136 16.9221 43.6123 16.8042 43.5991 16.6617L43.4724 13.9184C43.4096 12.6043 43.144 12.0581 42.3473 11.993L42.5744 16.7136C42.5744 16.8693 42.474 16.9872 42.3342 16.9994L39.9703 17.1174H39.945C39.8193 17.1174 39.7179 16.9994 39.7048 16.857L39.3885 10.095V10.0695C39.3885 9.92612 39.4899 9.82235 39.6166 9.80914L40.3748 9.77047C41.0195 9.54878 41.6519 9.44501 42.2581 9.44501C42.8268 9.44501 43.358 9.53651 43.8506 9.73084C44.6595 9.41859 45.4309 9.2752 46.1384 9.2752C48.3634 9.2752 49.9934 10.7185 50.1332 13.0864C50.1839 13.9316 50.3227 14.5684 50.9168 15.0495C50.9928 15.1137 51.1448 15.2448 51.1448 15.3872C51.1448 15.4533 51.1194 15.5306 51.0434 15.5957C51.0434 15.6212 49.969 16.6749 49.969 16.6749C49.8301 16.8051 49.7165 16.857 49.5899 16.857C49.4125 16.857 47.4287 16.4532 47.2767 13.892C47.2138 12.4883 46.9483 11.9666 46.2276 11.8628L46.4547 16.5061C46.4547 16.6617 46.3533 16.7777 46.2144 16.7919L43.8638 16.9221H43.8647Z" fill="white"/>
<path d="M40.0388 19.8739H39.9713C38.3966 19.8739 37.1185 18.6852 36.975 17.1089L36.9665 16.9862L36.6475 10.095C36.6475 8.51674 37.8036 7.22528 39.336 7.06679L39.8878 7.03472C41.2024 6.64983 42.5716 6.58379 43.8018 6.84793C44.5873 6.62907 45.3708 6.5187 46.1403 6.5187C49.8817 6.5187 52.65 9.15256 52.8724 12.9232C52.8771 13.01 52.8827 13.0779 52.8883 13.1307C53.7132 13.9448 53.8877 14.792 53.8877 15.3872C53.8877 16.24 53.5264 17.0532 52.8949 17.6305C52.6312 17.9154 52.299 18.2418 51.8842 18.6475C51.0265 19.4531 50.167 19.6125 49.5899 19.6125C49.1094 19.6125 48.4338 19.4644 47.7318 19.1229C47.3621 19.3446 46.9398 19.4899 46.4847 19.5352L46.3665 19.5446L43.8394 19.6786C43.6291 19.6786 43.4236 19.6569 43.2256 19.6154C43.0211 19.6805 42.8071 19.7239 42.5856 19.7446L42.4712 19.7531L40.0388 19.8739Z" fill="black"/>
<path d="M54.3995 17.1181C51.5297 17.1181 50.0891 15.1019 50.0891 13.1245C50.0891 11.2649 51.3664 9.31388 54.2475 9.31388C57.383 9.31388 57.5219 12.1876 57.5219 12.6169C57.5219 13.215 57.2816 13.7094 56.5355 13.9698C55.9415 14.1773 55.0058 14.3208 54.3489 14.3472C54.1462 14.3472 54.0833 14.2557 54.0326 14.099C53.8806 13.6698 53.6403 12.8254 53.6403 12.7735C53.6403 12.6301 53.7417 12.565 53.9059 12.5254C54.5638 12.3697 54.652 12.3442 54.652 12.1621C54.652 12.0442 54.4117 11.6282 53.8815 11.6282C53.2743 11.6282 52.7694 12.1744 52.7694 12.9801C52.7694 13.9037 53.4263 14.9444 55.0067 14.9444C55.095 14.9444 55.1963 14.9444 55.2855 14.9302H55.3108C55.4882 14.9302 55.7022 15.0481 55.7022 15.2689C55.7022 15.3991 55.3737 16.2831 55.1841 16.7247C55.0837 16.9332 54.9185 17.1152 54.5525 17.1152H54.4005L54.3995 17.1181Z" fill="white"/>
<path d="M54.5512 19.8739H54.3992C49.8188 19.8739 47.3471 16.3966 47.3471 13.1241C47.3471 9.8516 49.7175 6.55738 54.2481 6.55738C58.1978 6.55738 60.2641 9.60538 60.2641 12.6166C60.2641 14.1467 59.5481 15.4193 58.3076 16.1674C58.2044 16.5466 58.0214 17.074 57.7014 17.8192L57.6498 17.9324C57.0614 19.1475 55.9034 19.8729 54.5521 19.8729L54.5512 19.8739Z" fill="black"/>
<path d="M61.1663 16.6361C61.065 16.8843 60.9514 17.0145 60.7619 17.0145C60.7234 17.0145 60.6858 17.0145 60.6483 17.0003C58.6127 16.5842 57.9051 15.4398 57.8422 12.1491L56.8944 12.0972C56.7545 12.0849 56.641 11.9538 56.641 11.8113L56.793 9.65274C56.8061 9.50934 56.9197 9.39235 57.0708 9.39235L57.8798 9.44519C57.9051 8.95082 57.9304 8.41777 57.968 7.85831C57.9811 7.7017 58.0065 7.45546 58.3349 7.45546H58.3856L60.775 7.57244C60.9899 7.58471 61.0913 7.71585 61.0913 7.93661C61.0659 8.48287 61.0284 9.05554 60.9908 9.60085L61.8636 9.65369C62.0025 9.65369 62.1161 9.78294 62.1161 9.93955L61.9641 12.0982C61.9519 12.2284 61.8505 12.3463 61.7116 12.3463H61.6863L60.852 12.3067C60.852 13.4897 61.003 14.3879 61.5596 14.6341C61.6985 14.6983 61.8505 14.7521 61.8505 14.8945C61.8505 14.92 61.8383 14.9587 61.8252 14.9983L61.1682 16.6361H61.1663Z" fill="white"/>
<path d="M60.7615 19.7701C60.6526 19.7701 60.3692 19.7701 60.0145 19.6824C56.7423 18.9786 55.6266 16.7881 55.2615 14.3495C54.4404 13.7996 53.898 12.8571 53.898 11.811L53.9046 11.6166L54.0566 9.45821C54.1401 8.51391 54.6093 7.71677 55.2953 7.21301C55.6406 5.48006 57.0642 4.69896 58.3348 4.69896L58.5187 4.70273L60.9079 4.81971C62.4872 4.9131 63.6818 6.10268 63.8197 7.63941C64.455 8.19788 64.8567 9.02238 64.8567 9.94027L64.8501 10.1346L64.6981 12.293C64.6521 12.7779 64.5066 13.2222 64.2842 13.6081C64.5564 14.159 64.5911 14.6665 64.5911 14.8948C64.5911 15.3203 64.4963 15.6552 64.425 15.8702L64.3668 16.0297L63.7024 17.6862C62.9104 19.621 61.2513 19.771 60.7624 19.771L60.7615 19.7701ZM62.6646 12.1109L62.7218 12.1374C62.703 12.1279 62.6843 12.1194 62.6646 12.1109Z" fill="black"/>
<path d="M5.03655 16.057C5.08723 15.8551 5.28429 15.708 5.48042 15.757L7.92776 16.2278C8.77795 16.1627 9.70227 16.2495 10.5919 16.474C13.1396 17.1192 15.5241 18.9267 15.7024 21.8596C15.7737 22.9813 15.6836 23.9822 15.465 24.851C14.3642 29.2386 10.0232 30.6961 5.74223 29.6112C5.04875 29.4358 4.35622 29.1943 3.67869 28.8905C3.56608 28.8282 3.44878 28.783 3.34744 28.7396C2.88105 28.4896 2.65584 28.1698 2.77408 27.5726L5.03655 16.057ZM7.04754 26.067C7.16484 26.1132 7.28496 26.1434 7.40507 26.1736C9.15425 26.617 10.9241 25.6972 11.4177 23.7265C11.4843 23.4624 12.2378 20.3889 9.44984 19.6824C9.08856 19.5908 8.69631 19.5569 8.32658 19.5616L7.04754 26.067Z" fill="white"/>
<path d="M8.40448 32.7139C7.33095 32.7139 6.21331 32.5753 5.07128 32.2857C4.22297 32.0706 3.37935 31.7762 2.562 31.4112L2.05808 31.1753C0.47782 30.3301 -0.260699 28.783 0.0827545 27.0387L2.37714 15.3835C2.56482 14.6382 3.01337 13.9873 3.64116 13.5496C4.34308 13.0609 5.20923 12.8854 6.03408 13.06L8.11263 13.46C9.14018 13.4203 10.2175 13.5401 11.26 13.8043C15.4565 14.8684 18.2061 17.8919 18.4378 21.6955C18.5242 23.0577 18.4181 24.3492 18.1225 25.5284C17.0011 30.0008 13.1434 32.7168 8.40354 32.7168L8.40448 32.7139Z" fill="black"/>
<path d="M19.1505 28.8667C16.2806 28.8667 14.84 26.8505 14.84 24.8731C14.84 23.0135 16.1173 21.0625 18.9984 21.0625C22.1339 21.0625 22.2728 23.9362 22.2728 24.3655C22.2728 24.9636 22.0326 25.458 21.2865 25.7184C20.6924 25.926 19.7567 26.0694 19.0998 26.0958C18.8971 26.0958 18.8342 26.0043 18.7835 25.8477C18.6315 25.4184 18.3912 24.574 18.3912 24.5221C18.3912 24.3787 18.4926 24.3136 18.6568 24.274C19.3147 24.1183 19.4029 24.0928 19.4029 23.9108C19.4029 23.7928 19.1627 23.3768 18.6324 23.3768C18.0252 23.3768 17.5203 23.923 17.5203 24.7287C17.5203 25.6524 18.1773 26.693 19.7577 26.693C19.8459 26.693 19.9472 26.693 20.0364 26.6788H20.0617C20.2391 26.6788 20.4531 26.7968 20.4531 27.0175C20.4531 27.1477 20.1246 28.0317 19.935 28.4733C19.8346 28.6818 19.6695 28.8639 19.3034 28.8639H19.1514L19.1505 28.8667Z" fill="white"/>
<path d="M19.3021 31.6225H19.1501C14.5697 31.6225 12.098 28.1453 12.098 24.8727C12.098 21.6002 14.4684 18.306 18.999 18.306C22.9487 18.306 25.0151 21.3549 25.0151 24.3652C25.0151 25.8953 24.2991 27.1679 23.0585 27.916C22.9543 28.2952 22.7723 28.8226 22.4523 29.5678L22.3988 29.6839C21.8104 30.898 20.6524 31.6225 19.3021 31.6225Z" fill="black"/>
<path d="M25.9173 28.3847C25.8159 28.6329 25.7024 28.7631 25.5128 28.7631C25.4743 28.7631 25.4368 28.7631 25.3992 28.7489C23.3637 28.3329 22.6561 27.1885 22.5932 23.8977L21.6453 23.8458C21.5055 23.8336 21.3919 23.7024 21.3919 23.56L21.5439 21.4004C21.5571 21.257 21.6706 21.141 21.8217 21.141L22.6307 21.1929C22.6561 20.6985 22.6814 20.1654 22.7189 19.6069C22.7321 19.4503 22.7574 19.2031 23.0859 19.2031H23.1366L25.5259 19.3192C25.7408 19.3333 25.8422 19.4626 25.8422 19.6833C25.8169 20.2296 25.7793 20.8013 25.7418 21.3476L26.6146 21.3995C26.7535 21.3995 26.867 21.5297 26.867 21.6853L26.715 23.8449C26.7028 23.9751 26.6014 24.093 26.4625 24.093H26.4372L25.6029 24.0534C25.6029 25.2365 25.754 26.1346 26.3105 26.3809C26.4494 26.445 26.6014 26.4988 26.6014 26.6413C26.6014 26.6667 26.5892 26.7054 26.5761 26.745L25.9192 28.3829L25.9173 28.3847Z" fill="white"/>
<path d="M25.5124 31.5187C25.4036 31.5187 25.1211 31.5187 24.7664 31.4319C21.4933 30.7291 20.3775 28.5367 20.0125 26.0982C19.1914 25.5472 18.649 24.6048 18.649 23.5605L18.6555 23.3662L18.8076 21.2068C18.8911 20.2625 19.3603 19.4663 20.0462 18.9626C20.3906 17.2287 21.8151 16.4476 23.0857 16.4476L23.2687 16.4513L25.6579 16.5674C27.2419 16.6683 28.4318 17.857 28.5697 19.3861C29.205 19.9446 29.6067 20.7691 29.6067 21.687L29.6001 21.8813L29.4481 24.0407C29.4021 24.5256 29.2566 24.9699 29.0342 25.3557C29.3054 25.9067 29.3411 26.4142 29.3411 26.6425C29.3411 27.0717 29.2454 27.4085 29.1731 27.6245L29.1168 27.7773L28.4524 29.4339C27.6604 31.3687 26.0013 31.5187 25.5124 31.5187ZM27.4146 23.8596C27.4333 23.8681 27.4512 23.8756 27.4699 23.885C27.4521 23.8765 27.4333 23.8681 27.4146 23.8596Z" fill="black"/>
<path d="M30.583 28.8667C27.714 28.8667 26.2725 26.8505 26.2725 24.8731C26.2725 23.0135 27.5498 21.0625 30.4309 21.0625C33.5664 21.0625 33.7053 23.9362 33.7053 24.3655C33.7053 24.9636 33.4651 25.458 32.719 25.7184C32.1249 25.926 31.1892 26.0694 30.5323 26.0958C30.3296 26.0958 30.2667 26.0043 30.216 25.8477C30.064 25.4184 29.8238 24.574 29.8238 24.5221C29.8238 24.3787 29.9251 24.3136 30.0893 24.274C30.7463 24.1183 30.8354 24.0928 30.8354 23.9108C30.8354 23.7928 30.5952 23.3768 30.0649 23.3768C29.4577 23.3768 28.9528 23.923 28.9528 24.7287C28.9528 25.6524 29.6098 26.693 31.1902 26.693C31.2784 26.693 31.3798 26.693 31.4689 26.6788H31.4943C31.6716 26.6788 31.8856 26.7968 31.8856 27.0175C31.8856 27.1477 31.5571 28.0317 31.3676 28.4733C31.2671 28.6818 31.102 28.8639 30.736 28.8639H30.5839L30.583 28.8667Z" fill="white"/>
<path d="M30.7346 31.6225H30.5826C26.0013 31.6225 23.5296 28.1453 23.5296 24.8727C23.5296 21.6002 25.9 18.306 30.4306 18.306C34.3803 18.306 36.4466 21.3549 36.4466 24.3652C36.4466 25.8953 35.7306 27.1689 34.4891 27.916C34.385 28.2952 34.2029 28.8216 33.8839 29.566L33.8313 29.6801C33.243 30.8961 32.085 31.6225 30.7337 31.6225H30.7346Z" fill="black"/>
<path d="M39.1826 23.4957C39.1319 23.6513 38.9931 23.7815 38.841 23.7815C38.7903 23.7815 38.7275 23.7551 38.6768 23.7155C38.4497 23.5202 38.0067 23.3777 37.5637 23.3777C37.2353 23.3777 36.1354 23.456 36.1354 24.8731C36.1354 25.7448 36.7426 26.3175 37.5637 26.3175C38.1081 26.3175 38.7397 26.0694 39.3469 25.4977C39.4229 25.4193 39.5364 25.3542 39.65 25.3542C39.7382 25.3542 39.8396 25.4061 39.9278 25.5618C40.1558 26.0043 40.3069 26.2383 40.5096 26.6675C40.5481 26.7458 40.5725 26.8373 40.5725 26.9279C40.5725 27.0836 40.5096 27.227 40.3576 27.3836C39.3337 28.3846 38.1203 28.8271 36.9819 28.8271C34.8834 28.8271 33.0252 27.3185 33.0252 25.0297C33.0252 22.1163 35.2879 20.9323 37.3742 20.9323C38.7772 20.9323 39.7879 21.505 39.7879 21.8305C39.7879 21.8559 39.7879 21.8946 39.7757 21.922L39.1817 23.4957H39.1826Z" fill="white"/>
<path d="M36.9825 31.5838C33.2261 31.5838 30.2842 28.7056 30.2842 25.0303C30.2842 20.5304 33.851 18.1768 37.3747 18.1768C39.9365 18.1768 42.5312 19.4324 42.5312 21.8313C42.5312 22.2181 42.4637 22.586 42.3304 22.9266L42.016 23.7596C42.124 23.8954 42.2225 24.0416 42.3116 24.1982L42.3642 24.2954C42.443 24.4492 42.5115 24.5727 42.5763 24.6907C42.7133 24.9407 42.839 25.1708 42.9873 25.4869C43.1965 25.917 43.3157 26.4255 43.3157 26.9283C43.3157 27.5443 43.144 28.4566 42.3276 29.3028L42.2703 29.3603C40.8036 30.7942 38.9259 31.5829 36.9834 31.5829L36.9825 31.5838Z" fill="black"/>
<path d="M43.9514 28.3847C43.8501 28.6329 43.7365 28.7631 43.547 28.7631C43.5085 28.7631 43.4709 28.7631 43.4334 28.7489C41.3978 28.3329 40.6902 27.1885 40.6273 23.8977L39.6795 23.8458C39.5396 23.8336 39.4261 23.7024 39.4261 23.56L39.5781 21.4004C39.5912 21.257 39.7048 21.141 39.8559 21.141L40.6649 21.1929C40.6902 20.6985 40.7155 20.1654 40.7531 19.6069C40.7662 19.4503 40.7916 19.2031 41.12 19.2031H41.1707L43.5601 19.3192C43.775 19.3333 43.8764 19.4626 43.8764 19.6833C43.851 20.2296 43.8135 20.8013 43.7759 21.3476L44.6487 21.3995C44.7876 21.3995 44.9012 21.5297 44.9012 21.6853L44.7491 23.8449C44.7369 23.9751 44.6356 24.093 44.4967 24.093H44.4714L43.637 24.0534C43.637 25.2365 43.7881 26.1346 44.3447 26.3809C44.4836 26.445 44.6356 26.4988 44.6356 26.6413C44.6356 26.6667 44.6234 26.7054 44.6103 26.745L43.9533 28.3829L43.9514 28.3847Z" fill="white"/>
<path d="M43.5466 31.5187C43.4377 31.5187 43.1553 31.5187 42.8005 31.4319C39.5274 30.7291 38.4117 28.5377 38.0476 26.0982C37.2265 25.5472 36.6841 24.6048 36.6841 23.5596L36.6906 23.3652L36.8427 21.2059C36.9271 20.2616 37.3954 19.4644 38.0823 18.9607C38.4304 17.2258 39.853 16.4466 41.1208 16.4466L41.3038 16.4504L43.693 16.5664C45.277 16.6674 46.4669 17.856 46.6048 19.3852C47.2401 19.9437 47.6417 20.7682 47.6417 21.6861L47.6352 21.8804L47.4832 24.0397C47.4372 24.5246 47.2917 24.9689 47.0693 25.3548C47.3415 25.9057 47.3762 26.4132 47.3762 26.6415C47.3762 27.0594 47.2842 27.3906 47.2148 27.6038L47.1519 27.7773L46.4885 29.431C45.6974 31.3687 44.0374 31.5187 43.5475 31.5187H43.5466Z" fill="black"/>
<path d="M46.1273 21.4534C45.0912 21.4534 44.2569 20.5958 44.2569 19.542C44.2569 18.4881 45.0912 17.6164 46.1273 17.6164C47.1634 17.6164 47.9855 18.4749 47.9855 19.542C47.9855 20.609 47.1512 21.4534 46.1273 21.4534ZM45.3315 28.6849H45.3062C45.1673 28.6849 45.0659 28.567 45.0537 28.4245L44.7374 22.0912C44.7374 21.9355 44.8388 21.8176 44.9908 21.8053L47.5191 21.6751H47.5444C47.6711 21.6751 47.7847 21.793 47.7847 21.9232L48.101 28.2698V28.2953C48.101 28.4255 47.9874 28.5434 47.8607 28.5557L45.3324 28.6859L45.3315 28.6849Z" fill="white"/>
<path d="M45.4018 31.4404H45.3061C43.7418 31.4404 42.459 30.2461 42.322 28.6622L42.3154 28.5613L41.9954 22.0898C41.9954 21.9474 42.0048 21.8068 42.0236 21.6691C41.6989 21.0304 41.5159 20.3069 41.5159 19.5409C41.5159 16.9589 43.585 14.859 46.129 14.859C48.673 14.859 50.7291 16.9589 50.7291 19.5409C50.7291 20.1182 50.6249 20.671 50.4354 21.1823C50.487 21.3861 50.517 21.5983 50.5254 21.8162L50.8436 28.2679C50.8436 29.8282 49.6509 31.147 48.1278 31.297L48.0012 31.3065L45.4037 31.4404H45.4018ZM46.1272 18.6965C45.8447 18.6965 45.5923 18.8239 45.4309 19.022L46.7531 18.9541C46.5945 18.7956 46.373 18.6965 46.1281 18.6965H46.1272Z" fill="black"/>
<path d="M51.4388 28.8403C49.3789 28.8403 47.5704 27.3062 47.5704 25.0165C47.5704 22.338 49.5178 20.9455 51.742 20.9455C54.5358 20.9455 55.7371 23.1956 55.7371 24.8872C55.7371 27.4232 53.2342 28.8403 51.4388 28.8403ZM53.0437 24.8608C53.0437 24.6136 52.993 23.3523 51.7035 23.3523C50.6421 23.3523 50.3389 24.2759 50.3389 24.8608C50.3389 25.759 51.0212 26.3562 51.742 26.3562C52.6392 26.3562 53.0437 25.6024 53.0437 24.8608Z" fill="white"/>
<path d="M51.4385 31.5961C47.7318 31.5961 44.8284 28.7056 44.8284 25.0161C44.8284 21.0597 47.7356 18.189 51.7425 18.189C55.9597 18.189 58.4793 21.5946 58.4793 24.8869C58.4793 28.8999 54.8393 31.5961 51.4394 31.5961H51.4385ZM50.3124 24.9812C50.3931 25.4331 50.8989 25.9614 51.4666 26.0821C51.9546 26.0651 52.9944 25.617 52.9944 24.8869C52.9944 24.6888 52.9343 23.702 51.7425 23.702C51.4141 23.702 51.1617 23.752 50.9665 23.8341C50.6681 24.0247 50.4419 24.3058 50.3481 24.5878C50.3162 24.7378 50.3134 24.8775 50.3124 24.9812Z" fill="black"/>
<path d="M63.2865 24.0864C63.2865 24.8147 63.4507 25.4006 63.9697 25.895C64.0457 25.9591 64.1724 26.0903 64.1724 26.2327C64.1724 26.311 64.134 26.3884 64.0457 26.4544C64.0457 26.4799 62.7938 27.4035 62.7938 27.4035C62.668 27.5073 62.5413 27.5469 62.4278 27.5469C62.2007 27.5469 60.1773 26.8573 60.1773 24.543V24.1015C60.1773 22.7354 59.5326 22.1636 58.61 22.1117L58.3698 26.8327C58.3698 26.9629 58.2562 27.0799 58.1295 27.0799H58.1042L55.5759 26.9497C55.4239 26.9375 55.3235 26.8205 55.3235 26.6639L55.6651 19.9013C55.6782 19.7578 55.7918 19.6409 55.9175 19.6409H55.9429L57.359 19.7192C57.8517 19.6154 58.3201 19.5635 58.7752 19.5635C61.342 19.5635 63.2884 21.1749 63.2884 23.6599V24.0892L63.2865 24.0864Z" fill="white"/>
<path d="M62.4262 30.3027C61.6849 30.3027 60.7024 29.9725 59.8043 29.3141C59.3267 29.6424 58.7496 29.8339 58.1283 29.8339L57.9632 29.8301L55.346 29.6942C53.7695 29.5612 52.5805 28.2575 52.5805 26.6613L52.5843 26.5217L52.9334 19.6475C53.0751 18.0975 54.3851 16.8825 55.9165 16.8825L56.092 16.8862L57.174 16.9457C57.7211 16.8504 58.2475 16.8042 58.773 16.8042C62.9085 16.8042 66.0278 19.7503 66.0278 23.6567V24.0643C66.5946 24.668 66.9127 25.4397 66.9127 26.2321C66.9127 27.1991 66.4594 28.0896 65.6693 28.6735L65.6637 28.665C65.339 28.9414 64.9383 29.2377 64.455 29.5952C63.862 30.0574 63.1628 30.3008 62.4271 30.3008L62.4262 30.3027Z" fill="black"/>
<path d="M27.712 37.9166C27.6989 37.8902 27.6989 37.8524 27.6989 37.8251C27.6989 37.6298 27.8884 37.5647 27.9644 37.5647H28.0151C28.8747 37.5647 29.8103 37.0968 29.8103 36.278C29.8103 35.8478 29.5832 35.4582 28.9 34.3658C28.3811 33.5601 28.154 32.8319 28.154 32.1942C28.154 30.1395 30.4296 28.983 32.5532 28.983C33.0459 28.983 33.2992 29.0348 33.3753 29.3084L33.8172 31.2319C33.8304 31.2715 33.8304 31.3102 33.8304 31.3366C33.8304 31.5442 33.6408 31.6225 33.5648 31.6225H33.4888C32.6668 31.6225 31.8963 31.9347 31.8963 32.6762C31.8963 33.1177 32.2126 33.729 32.7934 34.5752C33.3236 35.3808 33.5517 36.1091 33.5517 36.76C33.5517 38.9194 31.0368 40.1929 28.8494 40.1929C28.7236 40.1929 28.6091 40.1929 28.4834 40.1806C28.3192 40.1806 28.1671 40.0373 28.1296 39.8684L27.713 37.9175L27.712 37.9166Z" fill="white"/>
<path d="M28.8494 42.9485C28.657 42.9485 28.4815 42.9447 28.2929 42.9296C26.9379 42.8428 25.7611 41.8381 25.4542 40.4759L25.0507 38.5892C24.9879 38.3449 24.9569 38.0902 24.9569 37.8251C24.9569 36.7883 25.4805 35.8723 26.2772 35.3289C25.7067 34.295 25.412 33.2366 25.412 32.1942C25.412 28.7914 28.4815 26.2265 32.5532 26.2265C35.0916 26.2265 35.8207 27.8622 36.0159 28.566L36.0469 28.6877L36.4767 30.5584C36.5405 30.8084 36.5724 31.0649 36.5724 31.3366C36.5724 32.2866 36.1389 33.1366 35.4623 33.695C36.0206 34.7271 36.2937 35.7469 36.2937 36.7591C36.2937 40.6335 32.5091 42.9485 28.8494 42.9485Z" fill="black"/>
<path d="M33.5798 42.923C33.3903 42.8456 33.3021 42.7409 33.3021 42.6107C33.3021 42.5211 33.3396 42.4296 33.4025 42.3391L35.3872 39.309C35.3497 39.2694 35.3243 39.2052 35.2868 39.1269L32.923 33.6262C32.8845 33.5347 32.8601 33.4564 32.8601 33.3922C32.8601 33.2102 33.0121 33.0932 33.2017 33.0413L35.2108 32.429C35.2614 32.4168 35.3121 32.4036 35.3628 32.4036C35.5899 32.4036 35.755 32.5715 35.8433 32.7932L37.3475 36.2921C38.0935 35.1346 38.8133 33.9771 39.4326 32.9762C39.5086 32.846 39.5968 32.7687 39.7367 32.7687C39.8127 32.7687 39.9262 32.7941 40.0529 32.8724L41.9363 33.8743C42.0874 33.9516 42.1634 34.0422 42.1634 34.1601C42.1634 34.3554 41.2024 37.0213 36.0328 43.4833C35.9061 43.6267 35.7926 43.705 35.6415 43.705C35.5786 43.705 35.5017 43.6928 35.4144 43.6532L33.5817 42.9249L33.5798 42.923Z" fill="white"/>
<path d="M35.6406 46.4597C35.2061 46.4597 34.7791 46.3729 34.3709 46.2012L32.5457 45.4757C31.3211 44.9748 30.5601 43.8767 30.5601 42.6098C30.5601 41.974 30.7562 41.3495 31.1278 40.7995L32.2698 39.0552L30.4062 34.7176C30.2082 34.2431 30.1181 33.8186 30.1181 33.3903C30.1181 31.9942 31.0452 30.7961 32.4294 30.3942L34.5455 29.7527C34.675 29.7197 34.9743 29.6442 35.3619 29.6442C36.289 29.6442 37.1514 30.0537 37.7604 30.7423C38.7307 29.9112 40.2021 29.782 41.3864 30.4603L43.2172 31.4338C44.2579 31.963 44.9044 32.9894 44.9044 34.1563C44.9044 36.5308 40.1946 42.6758 38.1686 45.2078L38.0785 45.3144C37.2405 46.2597 36.2899 46.4578 35.6406 46.4578V46.4597ZM40.6385 36.3015C40.6572 36.3119 40.6769 36.3223 40.6957 36.3317L40.6385 36.3015ZM33.3255 33.8856C33.3359 33.9101 33.3462 33.9347 33.3574 33.9592L33.3255 33.8856Z" fill="black"/>
<path d="M42.3558 40.1927C42.078 40.1927 41.9514 40.1408 41.8753 39.9191L41.3188 38.4114C41.3066 38.3718 41.2935 38.3331 41.2935 38.3067C41.2935 38.1114 41.5459 38.0869 41.698 38.0869C42.4441 38.0727 42.7979 37.7086 42.7979 37.3972C42.7979 37.2274 42.6336 37.0199 42.4563 36.7849L42.1146 36.3953C41.5581 35.7453 41.331 35.1858 41.331 34.6914C41.331 33.2215 43.391 32.4423 45.0474 32.4423C45.5401 32.4423 45.6668 32.4942 45.756 32.7281L46.3247 34.2358C46.35 34.2876 46.35 34.3273 46.35 34.3659C46.35 34.5094 46.2111 34.5612 46.046 34.5612H45.9953C45.237 34.5612 44.9461 34.8216 44.9461 35.082C44.9461 35.3018 45.1356 35.55 45.6152 36.0962C46.197 36.7463 46.4495 37.3312 46.4495 37.8256C46.4495 39.3596 44.1868 40.1927 42.4929 40.1927H42.354H42.3558Z" fill="white"/>
<path d="M42.4946 42.9485H42.3557C40.1815 42.9485 39.4542 41.3155 39.2825 40.8155L38.7063 39.2486C38.6631 39.1137 38.5515 38.7609 38.5515 38.3062C38.5515 37.7439 38.7185 37.1685 39.0432 36.6751C38.7401 36.0223 38.589 35.3601 38.589 34.6912C38.589 31.4395 41.9166 29.6858 45.0471 29.6858C47.1069 29.6858 47.9627 30.8084 48.3183 31.7489L48.8673 33.2026C49.0916 33.7498 49.0916 34.2054 49.0916 34.3658C49.0916 34.8922 48.9564 35.3827 48.7162 35.8063C49.0315 36.4647 49.192 37.1402 49.192 37.8251C49.192 41.1533 45.7405 42.9485 42.4937 42.9485H42.4946ZM41.8387 40.8391C41.8096 40.8401 41.7796 40.841 41.7495 40.8419C41.7627 40.8514 41.8087 40.841 41.8387 40.8391Z" fill="black"/>
<path d="M50.234 39.7372C50.1326 39.9853 50.0191 40.1145 49.8295 40.1145C49.791 40.1145 49.7535 40.1145 49.716 40.1023C47.6804 39.6862 46.9728 38.5418 46.9099 35.2511L45.962 35.1992C45.8222 35.1869 45.7086 35.0558 45.7086 34.9133L45.8607 32.7538C45.8738 32.6104 45.9874 32.4943 46.1394 32.4943L46.9484 32.5462C46.9737 32.0518 46.9991 31.5188 47.0366 30.9584C47.0497 30.8027 47.0751 30.5555 47.4035 30.5555H47.4542L49.8436 30.6716C50.0585 30.6857 50.1599 30.815 50.1599 31.0357C50.1345 31.582 50.097 32.1537 50.0594 32.7L50.9322 32.7519C51.0711 32.7519 51.1847 32.8821 51.1847 33.0387L51.0327 35.1973C51.0205 35.3275 50.9191 35.4454 50.7802 35.4454H50.7549L49.9205 35.4058C49.9205 36.5889 50.0716 37.487 50.6282 37.7333C50.7671 37.7974 50.9191 37.8512 50.9191 37.9937C50.9191 38.0191 50.9069 38.0578 50.8938 38.0974L50.2368 39.7353L50.234 39.7372Z" fill="white"/>
<path d="M49.8291 42.8702C49.649 42.8702 49.3919 42.8598 49.0841 42.7843C45.81 42.0815 44.6942 39.8891 44.3301 37.4506C43.509 36.8996 42.9666 35.9572 42.9666 34.9129L42.9732 34.7186L43.1252 32.5592C43.2097 31.6149 43.6779 30.8178 44.3649 30.314C44.7139 28.5783 46.1356 27.8 47.4034 27.8L47.5864 27.8038L49.9755 27.9198C51.5596 28.0207 52.7494 29.2094 52.8874 30.7395C53.5227 31.298 53.9243 32.1225 53.9243 33.0413L53.9178 33.2356L53.7657 35.3931C53.7197 35.878 53.5743 36.3223 53.3519 36.7081C53.624 37.2591 53.6588 37.7666 53.6588 37.9949C53.6588 38.4571 53.5433 38.8156 53.4992 38.9505L53.4345 39.1297L52.771 40.7835C51.98 42.7202 50.3199 42.8702 49.8301 42.8702H49.8291ZM51.7313 35.212L51.7885 35.2384C51.7698 35.2289 51.751 35.2205 51.7313 35.212Z" fill="black"/>
<path d="M54.9006 40.2191C52.0317 40.2191 50.5902 38.2029 50.5902 36.2255C50.5902 34.3659 51.8675 32.4149 54.7486 32.4149C57.8841 32.4149 58.023 35.2886 58.023 35.7179C58.023 36.316 57.7827 36.8104 57.0366 37.0708C56.4426 37.2784 55.5069 37.4218 54.85 37.4482C54.6472 37.4482 54.5844 37.3567 54.5337 37.201C54.3817 36.7708 54.1414 35.9264 54.1414 35.8745C54.1414 35.7311 54.2428 35.666 54.407 35.6264C55.0639 35.4707 55.1531 35.4452 55.1531 35.2632C55.1531 35.1452 54.9128 34.7292 54.3826 34.7292C53.7754 34.7292 53.2705 35.2754 53.2705 36.0811C53.2705 37.0048 53.9274 38.0454 55.5078 38.0454C55.5961 38.0454 55.6974 38.0454 55.7866 38.0331H55.8119C55.9893 38.0331 56.2032 38.1492 56.2032 38.3709C56.2032 38.5011 55.8748 39.3851 55.6852 39.8266C55.5848 40.0351 55.4196 40.2172 55.0536 40.2172H54.9016L54.9006 40.2191Z" fill="white"/>
<path d="M55.0523 42.9749H54.9003C50.3199 42.9749 47.8482 39.4977 47.8482 36.2251C47.8482 32.9526 50.2186 29.6584 54.7492 29.6584C58.6989 29.6584 60.7653 32.7064 60.7653 35.7176C60.7653 37.2477 60.0492 38.5213 58.8077 39.2684C58.7036 39.6477 58.5215 40.174 58.2025 40.9184L58.1509 41.0306C57.5634 42.2476 56.4045 42.9739 55.0523 42.9739V42.9749Z" fill="black"/>
<path d="M63.861 38.6826L63.8319 38.6901C63.6884 38.7269 63.5392 38.6222 63.4838 38.4628L62.5538 35.3695C62.1053 33.8894 61.6464 33.3422 60.7193 33.4988L62.3305 38.8175C62.3746 38.9948 62.2939 39.158 62.1381 39.2128L59.4759 40.0306L59.4468 40.0382C59.3032 40.075 59.154 39.9703 59.0987 39.8108L56.8014 32.1894L56.7939 32.1592C56.7527 31.996 56.839 31.8489 56.9797 31.797L57.8328 31.5329C58.5046 31.0942 59.1962 30.7923 59.8878 30.6169C60.5363 30.4527 61.1688 30.4027 61.7862 30.482C62.6195 29.8914 63.4575 29.5056 64.2655 29.3009C66.8029 28.6575 69.0757 29.832 69.9128 32.4923C70.2121 33.4413 70.5537 34.128 71.3682 34.5054C71.4733 34.5573 71.6845 34.662 71.7248 34.8252C71.7436 34.8997 71.7361 34.9959 71.6685 35.0922C71.676 35.1214 70.7517 36.6336 70.7517 36.6336C70.6306 36.8223 70.5152 36.9147 70.3716 36.9515C70.1699 37.0025 67.791 37.1166 66.8845 34.2394C66.4107 32.6564 65.9593 32.1385 65.1072 32.2291L66.6959 37.46C66.74 37.6373 66.6584 37.7996 66.5036 37.8553L63.8591 38.6845L63.861 38.6826Z" fill="white"/>
<path d="M59.3877 42.7985C58.103 42.7985 56.9469 41.9881 56.5077 40.7127L56.4749 40.6108L54.1458 32.8724C53.7516 31.3008 54.5746 29.7405 56.0498 29.2046L56.6898 29.0028C57.4959 28.5216 58.3442 28.1669 59.2178 27.9443C59.8315 27.7887 60.4415 27.7038 61.0411 27.6905C61.8697 27.2057 62.7256 26.8491 63.5964 26.6274C67.6043 25.6104 71.2781 27.6802 72.529 31.6602C72.5975 31.8762 72.6482 32.0074 72.682 32.0838C73.8174 32.6922 74.2322 33.5337 74.3861 34.1488C74.5972 34.9922 74.4405 35.8846 73.9572 36.6119C73.7461 37.0006 73.4608 37.4685 73.092 38.0741C72.4342 39.0996 71.6188 39.4769 71.0445 39.6222C70.4946 39.7618 69.6509 39.775 68.7332 39.5401C68.3982 39.9382 67.959 40.2552 67.4382 40.4448L67.3228 40.4844L64.5263 41.3561C64.2702 41.4202 64.0224 41.4514 63.7625 41.4514C63.5466 41.5995 63.3074 41.7221 63.0484 41.8136L62.9404 41.8485L60.1562 42.7013C59.8982 42.7664 59.641 42.7975 59.3877 42.7975V42.7985ZM72.5149 32.0008C72.5149 32.0008 72.5234 32.0055 72.5281 32.0074C72.5234 32.0055 72.5187 32.0027 72.5149 32.0008Z" fill="black"/>
<path d="M17.0509 17.6136C16.8332 17.6419 16.6277 17.49 16.6014 17.2815L15.0446 4.75745C15.0183 4.54897 15.1807 4.34898 15.3984 4.31973L18.7982 3.87258C19.0168 3.84428 19.2223 3.99616 19.2486 4.20464L20.8054 16.7287C20.8317 16.9372 20.6693 17.1381 20.4507 17.1664L17.0509 17.6136ZM25.5134 16.4014C25.2938 16.4146 25.1042 16.2599 25.0779 16.0514L24.772 11.3978L21.1845 11.7081C20.9649 11.7195 20.7754 11.5657 20.751 11.3732L20.7472 11.3402L20.5323 8.51675C20.5248 8.32241 20.6872 8.12148 20.888 8.09506L20.9218 8.09035L24.5112 7.79696L24.209 3.45278C24.2024 3.25751 24.3469 3.0594 24.5646 3.0311L24.5984 3.02639L27.987 2.75941C28.2047 2.73111 28.3961 2.90092 28.4224 3.1094L29.2904 15.708C29.2998 15.9193 29.1356 16.1042 28.9179 16.1325L25.5134 16.4004V16.4014Z" fill="white"/>
<path d="M17.0011 18.9946C16.6089 18.9946 16.2204 18.8635 15.9079 18.6211C15.5354 18.3324 15.2989 17.9173 15.2407 17.4523L13.6839 4.9282C13.5647 3.96597 14.2535 3.08015 15.2201 2.9528L18.6199 2.50564C19.0834 2.4415 19.5667 2.57451 19.9402 2.86412C20.3127 3.15279 20.5502 3.56787 20.6083 4.032L20.9405 6.70737L23.0491 6.53474L22.8417 3.54995C22.8061 2.59149 23.4864 1.78397 24.3873 1.66605L24.4924 1.65379L27.8575 1.38965C28.3051 1.34248 28.7452 1.47078 29.1046 1.74907C29.4772 2.03774 29.7249 2.47263 29.7831 2.93959L29.7906 3.01695L30.6586 15.6155C30.7027 16.5655 30.0158 17.3806 29.098 17.5023L29.0258 17.5098L25.5941 17.7787C24.6557 17.8334 23.8336 17.1494 23.7191 16.2221L23.7116 16.1438L23.4977 12.893L21.7297 13.0458L22.1661 16.5589C22.2862 17.5192 21.5974 18.406 20.6309 18.5343L17.2292 18.9814C17.1541 18.9918 17.0781 18.9965 17.0021 18.9965L17.0011 18.9946ZM19.4438 16.8985C19.4438 16.8985 19.4438 16.8994 19.4438 16.9004V16.8985ZM16.8754 16.2466C16.8754 16.2466 16.8735 16.2466 16.8726 16.2466H16.8754ZM16.5254 5.56119L17.8382 16.1193L19.3227 15.924L18.0099 5.36591L16.5254 5.56119ZM26.0473 9.90348L26.3795 14.9505L27.8556 14.8344L27.1236 4.2103L25.6438 4.32633L25.9732 9.06012L21.9737 9.38652L22.0394 10.2497L26.0473 9.90254V9.90348Z" fill="white"/>
<path d="M33.2537 17.1181C30.3838 17.1181 28.9432 15.1019 28.9432 13.1245C28.9432 11.2649 30.2205 9.31388 33.1016 9.31388C36.2371 9.31388 36.376 12.1876 36.376 12.6169C36.376 13.215 36.1357 13.7094 35.3896 13.9698C34.7956 14.1773 33.8599 14.3208 33.203 14.3472C33.0003 14.3472 32.9374 14.2557 32.8867 14.099C32.7347 13.6698 32.4944 12.8254 32.4944 12.7735C32.4944 12.6301 32.5958 12.565 32.76 12.5254C33.4179 12.3697 33.5061 12.3442 33.5061 12.1621C33.5061 12.0442 33.2659 11.6282 32.7356 11.6282C32.1284 11.6282 31.6235 12.1744 31.6235 12.9801C31.6235 13.9037 32.2805 14.9444 33.8609 14.9444C33.9491 14.9444 34.0504 14.9444 34.1396 14.9302H34.1649C34.3423 14.9302 34.5563 15.0481 34.5563 15.2689C34.5563 15.3991 34.2278 16.2831 34.0382 16.7247C33.9378 16.9332 33.7726 17.1152 33.4066 17.1152H33.2546L33.2537 17.1181Z" fill="white"/>
<path d="M33.4058 18.4966H33.2538C29.5233 18.4966 27.5713 15.7945 27.5713 13.1246C27.5713 10.6254 29.3018 7.93563 33.1018 7.93563C36.2935 7.93563 37.7472 10.3622 37.7472 12.617C37.7472 13.851 37.0847 14.803 35.9266 15.2407C35.9266 15.2511 35.9266 15.2605 35.9266 15.2709C35.9266 15.7134 35.5831 16.604 35.2959 17.2739C34.913 18.0711 34.2326 18.4966 33.4049 18.4966H33.4058ZM34.6662 11.3735C34.8032 11.6273 34.8783 11.9 34.8783 12.1632C34.8783 12.3736 34.8483 12.5557 34.7938 12.7151C34.8464 12.7 34.8961 12.684 34.9412 12.6689C34.9675 12.6595 34.989 12.651 35.005 12.6434C35.005 12.6349 35.005 12.6274 35.005 12.617C35.005 12.2538 34.9421 11.767 34.6662 11.3735Z" fill="white"/>
<path d="M36.4044 16.857C36.2655 16.857 36.152 16.741 36.152 16.5966V5.9725C36.152 5.81684 36.2655 5.69987 36.4044 5.69987H38.9447C39.0835 5.69987 39.1971 5.81684 39.1971 5.9725V16.5966C39.1971 16.741 39.0835 16.857 38.9447 16.857H36.4044Z" fill="white"/>
<path d="M38.9456 18.2352H36.4054C35.5101 18.2352 34.7819 17.5004 34.7819 16.5966V5.97249C34.7819 5.06215 35.5101 4.32161 36.4054 4.32161H38.9456C39.8408 4.32161 40.569 5.06215 40.569 5.97249V16.5966C40.569 17.5004 39.8408 18.2352 38.9456 18.2352ZM37.523 15.4787H37.827V7.07811H37.523V15.4787Z" fill="white"/>
<path d="M43.8647 16.9221H43.8394C43.7136 16.9221 43.6123 16.8042 43.5991 16.6617L43.4724 13.9184C43.4096 12.6043 43.144 12.0581 42.3473 11.993L42.5744 16.7136C42.5744 16.8693 42.474 16.9872 42.3342 16.9994L39.9703 17.1174H39.945C39.8193 17.1174 39.7179 16.9994 39.7048 16.857L39.3885 10.095V10.0695C39.3885 9.92612 39.4899 9.82235 39.6166 9.80914L40.3748 9.77047C41.0195 9.54878 41.6519 9.44501 42.2581 9.44501C42.8268 9.44501 43.358 9.53651 43.8506 9.73084C44.6595 9.41859 45.4309 9.2752 46.1384 9.2752C48.3634 9.2752 49.9934 10.7185 50.1332 13.0864C50.1839 13.9316 50.3227 14.5684 50.9168 15.0495C50.9928 15.1137 51.1448 15.2448 51.1448 15.3872C51.1448 15.4533 51.1194 15.5306 51.0434 15.5957C51.0434 15.6212 49.969 16.6749 49.969 16.6749C49.8301 16.8051 49.7165 16.857 49.5899 16.857C49.4125 16.857 47.4287 16.4532 47.2767 13.892C47.2138 12.4883 46.9483 11.9666 46.2276 11.8628L46.4547 16.5061C46.4547 16.6617 46.3533 16.7777 46.2144 16.7919L43.8638 16.9221H43.8647Z" fill="white"/>
<path d="M40.0051 18.4956H39.9459C39.1098 18.4956 38.4192 17.8447 38.3403 16.9825L38.0185 10.0686C38.0185 9.22426 38.6453 8.52335 39.4767 8.4375L40.1233 8.4026C41.3845 8.00544 42.7039 7.95827 43.8375 8.27524C44.6154 8.02431 45.3877 7.89695 46.1394 7.89695C49.1676 7.89695 51.3221 9.94971 51.5023 13.0043C51.5492 13.7911 51.6703 13.8892 51.7763 13.975C52.2746 14.3967 52.5158 14.8646 52.5158 15.3863C52.5158 15.8476 52.3206 16.2891 51.9771 16.6042C51.7566 16.8457 51.4244 17.1711 50.9261 17.6598C50.5132 18.0475 50.0703 18.2334 49.5899 18.2334C49.085 18.2334 48.2817 17.9966 47.5535 17.4126C47.2908 17.8315 46.8582 18.1117 46.3496 18.1617L43.8384 18.2985C43.5926 18.2985 43.3598 18.2428 43.1506 18.1419C42.946 18.2673 42.7123 18.3475 42.459 18.3701L40.0032 18.4937L40.0051 18.4956ZM40.8074 11.078L41.0232 15.6853L41.1537 15.6787L40.9294 11.0383C40.8928 11.0497 40.8562 11.0619 40.8196 11.0751L40.8083 11.0789L40.8074 11.078ZM43.8872 11.1931C44.7515 11.9704 44.8162 13.309 44.8416 13.8514L44.9166 15.4835L45.033 15.4769L44.805 10.8591C44.652 10.9044 44.4981 10.9572 44.3423 11.0166L43.8853 11.1931H43.8872ZM47.7581 11.1204C48.5604 11.9015 48.6177 13.1788 48.6468 13.8307C48.6974 14.6873 49.04 15.1061 49.3355 15.3089C48.918 14.6288 48.8072 13.8656 48.7659 13.1694C48.7115 12.2506 48.3549 11.5478 47.7581 11.1214V11.1204Z" fill="white"/>
<path d="M54.3995 17.1181C51.5297 17.1181 50.0891 15.1019 50.0891 13.1245C50.0891 11.2649 51.3664 9.31388 54.2475 9.31388C57.383 9.31388 57.5219 12.1876 57.5219 12.6169C57.5219 13.215 57.2816 13.7094 56.5355 13.9698C55.9415 14.1773 55.0058 14.3208 54.3489 14.3472C54.1462 14.3472 54.0833 14.2557 54.0326 14.099C53.8806 13.6698 53.6403 12.8254 53.6403 12.7735C53.6403 12.6301 53.7417 12.565 53.9059 12.5254C54.5638 12.3697 54.652 12.3442 54.652 12.1621C54.652 12.0442 54.4117 11.6282 53.8815 11.6282C53.2743 11.6282 52.7694 12.1744 52.7694 12.9801C52.7694 13.9037 53.4263 14.9444 55.0067 14.9444C55.095 14.9444 55.1963 14.9444 55.2855 14.9302H55.3108C55.4882 14.9302 55.7022 15.0481 55.7022 15.2689C55.7022 15.3991 55.3737 16.2831 55.1841 16.7247C55.0837 16.9332 54.9185 17.1152 54.5525 17.1152H54.4005L54.3995 17.1181Z" fill="white"/>
<path d="M54.5517 18.4966H54.3997C50.6692 18.4966 48.7181 15.7945 48.7181 13.1246C48.7181 10.6254 50.4486 7.93563 54.2486 7.93563C57.4403 7.93563 58.8941 10.3622 58.8941 12.617C58.8941 13.851 58.2324 14.803 57.0734 15.2407C57.0734 15.2511 57.0734 15.2605 57.0734 15.2709C57.0734 15.7134 56.7299 16.604 56.4427 17.2739C56.058 18.0711 55.3785 18.4966 54.5517 18.4966ZM55.8121 11.3735C55.9491 11.6273 56.0242 11.9 56.0242 12.1632C56.0242 12.3736 55.9941 12.5557 55.9397 12.7151C55.9923 12.7 56.042 12.684 56.087 12.6689C56.1133 12.6595 56.1349 12.651 56.1509 12.6434C56.1509 12.6349 56.1509 12.6274 56.1509 12.617C56.1509 12.2538 56.088 11.767 55.8121 11.3726V11.3735Z" fill="white"/>
<path d="M61.1663 16.6361C61.065 16.8843 60.9514 17.0145 60.7619 17.0145C60.7234 17.0145 60.6858 17.0145 60.6483 17.0003C58.6127 16.5842 57.9051 15.4398 57.8422 12.1491L56.8944 12.0972C56.7545 12.0849 56.641 11.9538 56.641 11.8113L56.793 9.65274C56.8061 9.50934 56.9197 9.39235 57.0708 9.39235L57.8798 9.44519C57.9051 8.95082 57.9304 8.41777 57.968 7.85831C57.9811 7.7017 58.0065 7.45546 58.3349 7.45546H58.3856L60.775 7.57244C60.9899 7.58471 61.0913 7.71585 61.0913 7.93661C61.0659 8.48287 61.0284 9.05554 60.9908 9.60085L61.8636 9.65369C62.0025 9.65369 62.1161 9.78294 62.1161 9.93955L61.9641 12.0982C61.9519 12.2284 61.8505 12.3463 61.7116 12.3463H61.6863L60.852 12.3067C60.852 13.4897 61.003 14.3879 61.5596 14.6341C61.6985 14.6983 61.8505 14.7521 61.8505 14.8945C61.8505 14.92 61.8383 14.9587 61.8252 14.9983L61.1682 16.6361H61.1663Z" fill="white"/>
<path d="M60.7615 18.3918C60.6836 18.3918 60.5194 18.3918 60.3176 18.339C57.631 17.7673 56.7592 15.9816 56.534 13.4241C55.7927 13.2326 55.27 12.5713 55.27 11.811L55.2737 11.7138L55.4258 9.55538C55.4886 8.8422 55.955 8.28279 56.58 8.08751C56.5865 7.98091 56.5931 7.87337 56.6006 7.76488C56.6963 6.59228 57.5409 6.07627 58.3357 6.07627L58.453 6.07815L60.8422 6.19513C61.7872 6.25173 62.4628 6.98283 62.4628 7.93563C62.4562 8.08751 62.4487 8.23656 62.4412 8.38278C63.0521 8.6224 63.4866 9.22898 63.4866 9.93838L63.4828 10.0355L63.3308 12.194C63.2726 12.8043 62.9254 13.2996 62.4393 13.5486C63.1159 13.9826 63.221 14.5609 63.221 14.8929C63.221 15.1137 63.1722 15.2901 63.1253 15.4325L63.0962 15.5127L62.4356 17.1598C61.9805 18.2711 61.1143 18.3918 60.7634 18.3918H60.7615ZM59.8953 16.1183C59.8953 16.1183 59.8944 16.1202 59.8935 16.1221L61.1659 16.6362L59.8944 16.1212V16.1193L59.8953 16.1183ZM59.1793 10.8412H59.1878L59.2122 12.1223C59.2563 14.4193 59.6082 15.1316 60.1722 15.4259L60.22 15.3061C59.4787 14.4127 59.4787 12.9939 59.4787 12.3053V10.861L59.5256 10.8629L59.6204 9.50349C59.6345 9.3035 59.6485 9.10068 59.6617 8.89691L59.2807 8.87805C59.2741 9.00257 59.2676 9.12521 59.2619 9.24596L59.1793 10.8402V10.8412Z" fill="white"/>
<path d="M5.03655 16.057C5.08723 15.8551 5.28429 15.708 5.48042 15.757L7.92776 16.2278C8.77795 16.1627 9.70227 16.2495 10.5919 16.474C13.1396 17.1192 15.5241 18.9267 15.7024 21.8596C15.7737 22.9813 15.6836 23.9822 15.465 24.851C14.3642 29.2386 10.0232 30.6961 5.74223 29.6112C5.04875 29.4358 4.35622 29.1943 3.67869 28.8905C3.56608 28.8282 3.44878 28.783 3.34744 28.7396C2.88105 28.4896 2.65584 28.1698 2.77408 27.5726L5.03655 16.057ZM7.04754 26.067C7.16484 26.1132 7.28496 26.1434 7.40507 26.1736C9.15425 26.617 10.9241 25.6972 11.4177 23.7265C11.4843 23.4624 12.2378 20.3889 9.44984 19.6824C9.08856 19.5908 8.69631 19.5569 8.32658 19.5616L7.04754 26.067Z" fill="white"/>
<path d="M8.46642 31.3451C7.48954 31.3451 6.46294 31.2159 5.40724 30.948C4.63494 30.7527 3.86639 30.4838 3.1213 30.1499L3.02089 30.0999C2.97116 30.0725 2.91954 30.0537 2.87356 30.0339L2.70371 29.9565C1.28954 29.1999 1.29799 27.9698 1.42937 27.3038L3.7078 15.7184C3.81384 15.2957 4.06814 14.9269 4.4238 14.6788C4.81792 14.4043 5.3012 14.3061 5.76289 14.4071L8.01411 14.8401C8.95532 14.7891 9.95659 14.891 10.926 15.1363C14.5219 16.0476 16.8763 18.5918 17.0697 21.7747C17.1466 22.9973 17.0546 24.1463 16.7938 25.1869C15.8235 29.0546 12.5794 31.3432 8.46548 31.3432L8.46642 31.3451ZM4.27834 27.6509C4.86672 27.9122 5.47199 28.1217 6.07725 28.2754C9.40763 29.1188 13.1903 28.2839 14.1353 24.5152C14.3267 23.753 14.3933 22.8888 14.3333 21.9483C14.1559 19.0229 11.1681 18.0428 10.2559 17.8117C9.50429 17.6211 8.73386 17.5485 8.03194 17.6032L7.84989 17.6173L6.1908 17.2975L4.16761 27.5962C4.20421 27.6132 4.24081 27.6321 4.27834 27.6509ZM8.27311 27.6622C7.87523 27.6622 7.47078 27.6122 7.07008 27.5104C6.89366 27.466 6.721 27.4179 6.55115 27.3519L5.48043 26.933L7.1977 18.1966L8.31064 18.1834C8.83615 18.1768 9.33538 18.2315 9.78487 18.3456C11.4768 18.7739 12.5672 19.9437 12.8562 21.6379C13.0392 22.7096 12.8412 23.6916 12.7474 24.0643C12.4227 25.3595 11.6495 26.4189 10.5703 27.0481C9.87214 27.4547 9.08388 27.6622 8.27405 27.6622H8.27311ZM9.41795 21.1191L8.68225 24.8614C8.86336 24.8218 9.03603 24.7558 9.19462 24.6633C9.63472 24.4077 9.94346 23.9671 10.088 23.3907C10.1161 23.2775 10.2522 22.687 10.1527 22.104C10.0673 21.6012 9.84774 21.2993 9.41795 21.1191Z" fill="white"/>
<path d="M19.1505 28.8667C16.2806 28.8667 14.84 26.8505 14.84 24.8731C14.84 23.0135 16.1173 21.0625 18.9984 21.0625C22.1339 21.0625 22.2728 23.9362 22.2728 24.3655C22.2728 24.9636 22.0326 25.458 21.2865 25.7184C20.6924 25.926 19.7567 26.0694 19.0998 26.0958C18.8971 26.0958 18.8342 26.0043 18.7835 25.8477C18.6315 25.4184 18.3912 24.574 18.3912 24.5221C18.3912 24.3787 18.4926 24.3136 18.6568 24.274C19.3147 24.1183 19.4029 24.0928 19.4029 23.9108C19.4029 23.7928 19.1627 23.3768 18.6324 23.3768C18.0252 23.3768 17.5203 23.923 17.5203 24.7287C17.5203 25.6524 18.1773 26.693 19.7577 26.693C19.8459 26.693 19.9472 26.693 20.0364 26.6788H20.0617C20.2391 26.6788 20.4531 26.7968 20.4531 27.0175C20.4531 27.1477 20.1246 28.0317 19.935 28.4733C19.8346 28.6818 19.6695 28.8639 19.3034 28.8639H19.1514L19.1505 28.8667Z" fill="white"/>
<path d="M19.3026 30.2452H19.1506C15.4201 30.2452 13.469 27.5432 13.469 24.8732C13.469 22.374 15.1996 19.6842 18.9995 19.6842C22.1913 19.6842 23.645 22.1108 23.645 24.3656C23.645 25.5997 22.9824 26.5506 21.8243 26.9893C21.8243 26.9997 21.8243 27.0092 21.8243 27.0195C21.8243 27.4611 21.4818 28.3526 21.1937 29.0225C20.8079 29.8206 20.1285 30.2452 19.3026 30.2452ZM20.5621 23.1212C20.7 23.375 20.7751 23.6477 20.7751 23.9118C20.7751 24.1222 20.7451 24.3043 20.6906 24.4637C20.7432 24.4487 20.792 24.4336 20.837 24.4175C20.8643 24.4081 20.8849 24.3996 20.9018 24.392C20.9018 24.3845 20.9018 24.376 20.9018 24.3666C20.9018 24.0033 20.8389 23.5156 20.5621 23.1212Z" fill="white"/>
<path d="M25.9173 28.3847C25.8159 28.6329 25.7024 28.7631 25.5128 28.7631C25.4743 28.7631 25.4368 28.7631 25.3992 28.7489C23.3637 28.3329 22.6561 27.1885 22.5932 23.8977L21.6453 23.8458C21.5055 23.8336 21.3919 23.7024 21.3919 23.56L21.5439 21.4004C21.5571 21.257 21.6706 21.141 21.8217 21.141L22.6307 21.1929C22.6561 20.6985 22.6814 20.1654 22.7189 19.6069C22.7321 19.4503 22.7574 19.2031 23.0859 19.2031H23.1366L25.5259 19.3192C25.7408 19.3333 25.8422 19.4626 25.8422 19.6833C25.8169 20.2296 25.7793 20.8013 25.7418 21.3476L26.6146 21.3995C26.7535 21.3995 26.867 21.5297 26.867 21.6853L26.715 23.8449C26.7028 23.9751 26.6014 24.093 26.4625 24.093H26.4372L25.6029 24.0534C25.6029 25.2365 25.754 26.1346 26.3105 26.3809C26.4494 26.445 26.6014 26.4988 26.6014 26.6413C26.6014 26.6667 26.5892 26.7054 26.5761 26.745L25.9192 28.3829L25.9173 28.3847Z" fill="white"/>
<path d="M25.5124 30.1405C25.4345 30.1405 25.2712 30.1405 25.0695 30.0876C22.3819 29.516 21.5101 27.7311 21.2849 25.1727C20.5417 24.9793 20.0209 24.319 20.0209 23.5596L20.0247 23.4624L20.1767 21.3031C20.2396 20.5908 20.7059 20.0314 21.3309 19.8361C21.3375 19.7295 21.344 19.622 21.3516 19.5135C21.4463 18.3409 22.2909 17.8249 23.0867 17.8249L23.203 17.8268L25.5922 17.9428C26.54 18.0032 27.2128 18.7352 27.2128 19.6842C27.2062 19.8352 27.1987 19.9842 27.1912 20.1314C27.8021 20.371 28.2366 20.9776 28.2366 21.687L28.2328 21.7842L28.0808 23.9435C28.0226 24.5539 27.6754 25.0491 27.1893 25.2982C27.8659 25.7321 27.971 26.3104 27.971 26.6434C27.971 26.8679 27.9194 27.051 27.8744 27.1859L27.8462 27.2623L27.1856 28.9094C26.7305 30.0207 25.8643 30.1414 25.5134 30.1414L25.5124 30.1405ZM24.6453 27.867C24.6453 27.867 24.6444 27.8688 24.6435 27.8707L25.9159 28.3849L24.6444 27.8698V27.8679L24.6453 27.867ZM25.7573 27.6387C25.7789 27.6519 25.7996 27.6632 25.8202 27.6736L26.2162 26.6264L26.2031 26.6217L25.8418 27.4453L25.8653 27.4538C25.8568 27.4509 25.8493 27.4481 25.8418 27.4453L25.7564 27.6387H25.7573ZM23.9312 22.5907H23.9387L23.9631 23.8709C24.0072 26.168 24.3591 26.8802 24.9231 27.1745L24.9728 27.05C24.2287 26.151 24.2287 24.7407 24.2287 24.0548V22.6106L24.2775 22.6124L24.3713 21.2531C24.3854 21.0531 24.3985 20.8493 24.4126 20.6455L24.0316 20.6267C24.0241 20.7653 24.0175 20.9002 24.011 21.0342L23.9312 22.5907ZM26.2125 26.6L26.2237 26.6047L26.3082 26.3821L26.2125 26.6Z" fill="white"/>
<path d="M30.583 28.8667C27.714 28.8667 26.2725 26.8505 26.2725 24.8731C26.2725 23.0135 27.5498 21.0625 30.4309 21.0625C33.5664 21.0625 33.7053 23.9362 33.7053 24.3655C33.7053 24.9636 33.4651 25.458 32.719 25.7184C32.1249 25.926 31.1892 26.0694 30.5323 26.0958C30.3296 26.0958 30.2667 26.0043 30.216 25.8477C30.064 25.4184 29.8238 24.574 29.8238 24.5221C29.8238 24.3787 29.9251 24.3136 30.0893 24.274C30.7463 24.1183 30.8354 24.0928 30.8354 23.9108C30.8354 23.7928 30.5952 23.3768 30.0649 23.3768C29.4577 23.3768 28.9528 23.923 28.9528 24.7287C28.9528 25.6524 29.6098 26.693 31.1902 26.693C31.2784 26.693 31.3798 26.693 31.4689 26.6788H31.4943C31.6716 26.6788 31.8856 26.7968 31.8856 27.0175C31.8856 27.1477 31.5571 28.0317 31.3676 28.4733C31.2671 28.6818 31.102 28.8639 30.736 28.8639H30.5839L30.583 28.8667Z" fill="white"/>
<path d="M30.7351 30.2452H30.5831C26.8526 30.2452 24.9006 27.5432 24.9006 24.8732C24.9006 22.374 26.6311 19.6842 30.4311 19.6842C33.6228 19.6842 35.0766 22.1108 35.0766 24.3656C35.0766 25.5997 34.414 26.5506 33.2559 26.9893C33.2559 26.9997 33.2559 27.0092 33.2559 27.0195C33.2559 27.4592 32.9134 28.3507 32.6252 29.0215C32.2405 29.8197 31.561 30.2452 30.7342 30.2452H30.7351ZM31.9946 23.1212C32.1325 23.375 32.2076 23.6477 32.2076 23.9118C32.2076 24.1222 32.1776 24.3043 32.1231 24.4637C32.1757 24.4487 32.2245 24.4336 32.2696 24.4175C32.2968 24.4081 32.3174 24.3996 32.3343 24.392C32.3343 24.3845 32.3343 24.376 32.3343 24.3666C32.3343 24.0033 32.2714 23.5156 31.9946 23.1212Z" fill="white"/>
<path d="M39.1826 23.4957C39.1319 23.6513 38.9931 23.7815 38.841 23.7815C38.7903 23.7815 38.7275 23.7551 38.6768 23.7155C38.4497 23.5202 38.0067 23.3777 37.5637 23.3777C37.2353 23.3777 36.1354 23.456 36.1354 24.8731C36.1354 25.7448 36.7426 26.3175 37.5637 26.3175C38.1081 26.3175 38.7397 26.0694 39.3469 25.4977C39.4229 25.4193 39.5364 25.3542 39.65 25.3542C39.7382 25.3542 39.8396 25.4061 39.9278 25.5618C40.1558 26.0043 40.3069 26.2383 40.5096 26.6675C40.5481 26.7458 40.5725 26.8373 40.5725 26.9279C40.5725 27.0836 40.5096 27.227 40.3576 27.3836C39.3337 28.3846 38.1203 28.8271 36.9819 28.8271C34.8834 28.8271 33.0252 27.3185 33.0252 25.0297C33.0252 22.1163 35.2879 20.9323 37.3742 20.9323C38.7772 20.9323 39.7879 21.505 39.7879 21.8305C39.7879 21.8559 39.7879 21.8946 39.7757 21.922L39.1817 23.4957H39.1826Z" fill="white"/>
<path d="M36.983 30.2065C33.9958 30.2065 31.6552 27.9328 31.6552 25.0308C31.6552 21.2683 34.6198 19.555 37.3752 19.555C39.21 19.555 41.1601 20.3532 41.1601 21.8315C41.1601 21.9155 41.1601 22.1561 41.0522 22.4287L40.4722 23.9637C40.4488 24.0317 40.4216 24.0968 40.3906 24.16C40.6853 24.3147 40.9387 24.5609 41.1198 24.8808C41.2315 25.0959 41.3056 25.2298 41.376 25.3572C41.4999 25.5836 41.6144 25.7921 41.7486 26.0771C41.8743 26.3346 41.9447 26.6346 41.9447 26.928C41.9447 27.4535 41.742 27.929 41.3431 28.3432C40.1043 29.5536 38.5662 30.2056 36.983 30.2056V30.2065ZM35.5799 22.7505C34.9418 23.1212 34.3974 23.7977 34.3974 25.0308C34.3974 26.2639 35.1829 27.0167 36.1139 27.3139C35.2937 26.8328 34.7644 25.9403 34.7644 24.8742C34.7644 23.9213 35.0882 23.2212 35.579 22.7505H35.5799ZM39.271 27.2601C39.271 27.2601 39.2757 27.2696 39.2775 27.2743C39.2757 27.2696 39.2729 27.2648 39.271 27.2601ZM40.3296 26.4601C40.3071 26.4808 40.2855 26.5016 40.263 26.5224C40.2855 26.5035 40.308 26.4827 40.3296 26.4601ZM37.5132 24.7591C37.5094 24.7883 37.5076 24.826 37.5076 24.8742C37.5076 24.9053 37.5104 24.927 37.5132 24.9402C37.5207 24.9383 37.5395 24.9402 37.5648 24.9402C37.6127 24.9402 37.73 24.9308 37.8998 24.8525C37.8801 24.8383 37.8614 24.8242 37.8426 24.81L37.836 24.8053C37.7825 24.7826 37.6211 24.7487 37.5141 24.7591H37.5132Z" fill="white"/>
<path d="M43.9514 28.3847C43.8501 28.6329 43.7365 28.7631 43.547 28.7631C43.5085 28.7631 43.4709 28.7631 43.4334 28.7489C41.3978 28.3329 40.6902 27.1885 40.6273 23.8977L39.6795 23.8458C39.5396 23.8336 39.4261 23.7024 39.4261 23.56L39.5781 21.4004C39.5912 21.257 39.7048 21.141 39.8559 21.141L40.6649 21.1929C40.6902 20.6985 40.7155 20.1654 40.7531 19.6069C40.7662 19.4503 40.7916 19.2031 41.12 19.2031H41.1707L43.5601 19.3192C43.775 19.3333 43.8764 19.4626 43.8764 19.6833C43.851 20.2296 43.8135 20.8013 43.7759 21.3476L44.6487 21.3995C44.7876 21.3995 44.9012 21.5297 44.9012 21.6853L44.7491 23.8449C44.7369 23.9751 44.6356 24.093 44.4967 24.093H44.4714L43.637 24.0534C43.637 25.2365 43.7881 26.1346 44.3447 26.3809C44.4836 26.445 44.6356 26.4988 44.6356 26.6413C44.6356 26.6667 44.6234 26.7054 44.6103 26.745L43.9533 28.3829L43.9514 28.3847Z" fill="white"/>
<path d="M43.5466 30.1405C43.4687 30.1405 43.3054 30.1405 43.1036 30.0876C40.4161 29.5169 39.5452 27.7311 39.3191 25.1727C38.5759 24.9793 38.0541 24.319 38.0541 23.5596L38.0579 23.4624L38.2099 21.3031C38.2728 20.5908 38.7392 20.0314 39.3641 19.8361C39.3707 19.7295 39.3773 19.622 39.3848 19.5135C39.4824 18.34 40.326 17.8249 41.1199 17.8249L41.2362 17.8268L43.6254 17.9428C44.5732 18.0032 45.246 18.7352 45.246 19.6842C45.2394 19.8352 45.2319 19.9842 45.2244 20.1314C45.8353 20.371 46.2698 20.9776 46.2698 21.687L46.266 21.7842L46.114 23.9435C46.0558 24.5539 45.7086 25.0491 45.2225 25.2982C45.8991 25.7321 46.0042 26.3104 46.0042 26.6434C46.0042 26.8896 45.9414 27.083 45.9104 27.1764L45.8794 27.2632L45.2188 28.9084C44.7646 30.0216 43.8975 30.1414 43.5456 30.1414L43.5466 30.1405ZM42.6795 27.8679C42.6795 27.8679 42.6786 27.8698 42.6786 27.8717L43.951 28.3849L42.6795 27.8688V27.8679ZM43.7915 27.6387C43.8131 27.6519 43.8337 27.6632 43.8544 27.6736L44.2494 26.6283L44.2363 26.6236L43.8759 27.4443L43.9003 27.4528C43.8919 27.45 43.8844 27.4472 43.8759 27.4443L43.7906 27.6387H43.7915ZM41.9644 22.5907H41.9729L41.9973 23.8718C42.0414 26.1689 42.3933 26.8811 42.9573 27.1755L43.0079 27.05C42.2638 26.151 42.2638 24.7407 42.2638 24.0548V22.6106L42.3116 22.6124L42.4055 21.2531C42.4196 21.0531 42.4336 20.8493 42.4468 20.6455L42.0658 20.6267C42.0592 20.7446 42.0536 20.8616 42.0479 20.9757L41.9635 22.5898L41.9644 22.5907ZM44.2476 26.6L44.2588 26.6047L44.3433 26.3831L44.2476 26.601V26.6Z" fill="white"/>
<path d="M46.1273 21.4534C45.0912 21.4534 44.2569 20.5958 44.2569 19.542C44.2569 18.4881 45.0912 17.6164 46.1273 17.6164C47.1634 17.6164 47.9855 18.4749 47.9855 19.542C47.9855 20.609 47.1512 21.4534 46.1273 21.4534ZM45.3315 28.6849H45.3062C45.1673 28.6849 45.0659 28.567 45.0537 28.4245L44.7374 22.0912C44.7374 21.9355 44.8388 21.8176 44.9908 21.8053L47.5191 21.6751H47.5444C47.6711 21.6751 47.7847 21.793 47.7847 21.9232L48.101 28.2698V28.2953C48.101 28.4255 47.9874 28.5434 47.8607 28.5557L45.3324 28.6859L45.3315 28.6849Z" fill="white"/>
<path d="M45.3671 30.0622H45.3061C44.4578 30.0622 43.7624 29.4094 43.6873 28.5424L43.3664 22.0898C43.3664 21.8634 43.4105 21.6474 43.4903 21.4502C43.1102 20.9116 42.8869 20.2522 42.8869 19.5409C42.8869 17.7192 44.3414 16.2372 46.1281 16.2372C47.9148 16.2372 49.3571 17.7192 49.3571 19.5409C49.3571 20.1182 49.2098 20.6616 48.9527 21.1342C49.0747 21.354 49.1469 21.6049 49.1544 21.8719L49.4707 28.2669C49.4707 29.1264 48.8213 29.8433 47.9927 29.9244L45.3671 30.0612V30.0622ZM46.1609 23.1237L46.3674 27.25L46.6752 27.234L46.4697 23.1077L46.1609 23.1237ZM46.1272 18.9947C45.8466 18.9947 45.6279 19.2352 45.6279 19.5418C45.6279 19.8484 45.8522 20.0748 46.1272 20.0748C46.4021 20.0748 46.6142 19.8361 46.6142 19.5418C46.6142 19.2475 46.3955 18.9947 46.1272 18.9947Z" fill="white"/>
<path d="M51.4388 28.8403C49.3789 28.8403 47.5704 27.3062 47.5704 25.0165C47.5704 22.338 49.5178 20.9455 51.742 20.9455C54.5358 20.9455 55.7371 23.1956 55.7371 24.8872C55.7371 27.4232 53.2342 28.8403 51.4388 28.8403ZM53.0437 24.8608C53.0437 24.6136 52.993 23.3523 51.7035 23.3523C50.6421 23.3523 50.3389 24.2759 50.3389 24.8608C50.3389 25.759 51.0212 26.3562 51.742 26.3562C52.6392 26.3562 53.0437 25.6024 53.0437 24.8608Z" fill="white"/>
<path d="M51.439 30.2188C48.5006 30.2188 46.1994 27.9337 46.1994 25.0166C46.1994 21.808 48.479 19.5673 51.743 19.5673C55.2286 19.5673 57.1083 22.308 57.1083 24.8874C57.1083 28.3658 53.8162 30.2188 51.439 30.2188ZM49.0308 24.2213C48.9736 24.46 48.9417 24.7241 48.9417 25.0166C48.9417 25.7874 49.2448 26.3856 49.6943 26.7978C49.2439 26.2865 48.9679 25.6063 48.9679 24.8609C48.9679 24.6468 48.9886 24.4317 49.0308 24.2213Z" fill="white"/>
<path d="M63.2865 24.0864C63.2865 24.8147 63.4507 25.4006 63.9697 25.895C64.0457 25.9591 64.1724 26.0903 64.1724 26.2327C64.1724 26.311 64.134 26.3884 64.0457 26.4544C64.0457 26.4799 62.7938 27.4035 62.7938 27.4035C62.668 27.5073 62.5413 27.5469 62.4278 27.5469C62.2007 27.5469 60.1773 26.8573 60.1773 24.543V24.1015C60.1773 22.7354 59.5326 22.1636 58.61 22.1117L58.3698 26.8327C58.3698 26.9629 58.2562 27.0799 58.1295 27.0799H58.1042L55.5759 26.9497C55.4239 26.9375 55.3235 26.8205 55.3235 26.6639L55.6651 19.9013C55.6782 19.7578 55.7918 19.6409 55.9175 19.6409H55.9429L57.359 19.7192C57.8517 19.6154 58.3201 19.5635 58.7752 19.5635C61.342 19.5635 63.2884 21.1749 63.2884 23.6599V24.0892L63.2865 24.0864Z" fill="white"/>
<path d="M62.4262 28.9245C61.7815 28.9245 60.5269 28.4141 59.6776 27.2792C59.4843 27.9585 58.8631 28.4566 58.1293 28.4566L58.0336 28.4547L55.5055 28.3245C54.6009 28.249 53.9515 27.5349 53.9515 26.6623L53.9534 26.5925L54.2941 19.8305C54.3757 18.9258 55.0861 18.2617 55.9165 18.2617L56.017 18.2635L57.2594 18.3324C61.3949 17.5428 64.6559 20.0267 64.6559 23.6586V24.0869C64.6559 24.5869 64.7619 24.7482 64.8933 24.8784C65.3118 25.251 65.5408 25.7302 65.5408 26.2331C65.5408 26.7359 65.2911 27.2425 64.8557 27.5651L64.8529 27.5613C64.5874 27.7877 64.197 28.0754 63.6255 28.4981C63.2717 28.7773 62.8579 28.9245 62.4253 28.9245H62.4262ZM60.1337 21.17C60.937 21.6578 61.5469 22.5823 61.5469 24.1001V24.5416C61.5469 25.4001 61.9974 25.834 62.3258 26.0368C62.3343 26.0302 62.3427 26.0236 62.3521 26.018C62.0584 25.468 61.9139 24.8293 61.9139 24.0869V23.6586C61.9139 22.3417 61.1369 21.5351 60.1337 21.171V21.17ZM56.747 25.6284L57.0558 25.6444L57.2875 21.0946L56.976 21.0776L56.747 25.6284Z" fill="white"/>
<path d="M27.712 37.9166C27.6989 37.8902 27.6989 37.8524 27.6989 37.8251C27.6989 37.6298 27.8884 37.5647 27.9644 37.5647H28.0151C28.8747 37.5647 29.8103 37.0968 29.8103 36.278C29.8103 35.8478 29.5832 35.4582 28.9 34.3658C28.3811 33.5601 28.154 32.8319 28.154 32.1942C28.154 30.1395 30.4296 28.983 32.5532 28.983C33.0459 28.983 33.2992 29.0348 33.3753 29.3084L33.8172 31.2319C33.8304 31.2715 33.8304 31.3102 33.8304 31.3366C33.8304 31.5442 33.6408 31.6225 33.5648 31.6225H33.4888C32.6668 31.6225 31.8963 31.9347 31.8963 32.6762C31.8963 33.1177 32.2126 33.729 32.7934 34.5752C33.3236 35.3808 33.5517 36.1091 33.5517 36.76C33.5517 38.9194 31.0368 40.1929 28.8494 40.1929C28.7236 40.1929 28.6091 40.1929 28.4834 40.1806C28.3192 40.1806 28.1671 40.0373 28.1296 39.8684L27.713 37.9175L27.712 37.9166Z" fill="white"/>
<path d="M28.8494 41.5702C28.6917 41.5702 28.5491 41.5683 28.3933 41.5551C27.6313 41.5136 26.966 40.9448 26.7915 40.1712L26.3851 38.2694C26.3279 38.0628 26.3279 37.8939 26.3279 37.8251C26.3279 36.8129 27.1771 36.1865 27.9645 36.1865C28.1296 36.1865 28.2666 36.1591 28.3642 36.127C28.231 35.8865 27.9541 35.444 27.7392 35.0988C27.1086 34.1186 26.783 33.1356 26.783 32.1942C26.783 29.2131 29.7559 27.6047 32.5532 27.6047C33.729 27.6047 34.4497 28.0528 34.6956 28.9367L35.1451 30.8885C35.1939 31.0744 35.2004 31.231 35.2004 31.3376C35.2004 32.3649 34.3512 33.0017 33.5639 33.0017H33.4879C33.4654 33.0017 33.4447 33.0017 33.4241 33.0026C33.5207 33.1781 33.6746 33.4337 33.9205 33.7922C34.5896 34.8082 34.9217 35.7987 34.9217 36.76C34.9217 39.7316 31.7697 41.5712 28.8484 41.5712L28.8494 41.5702ZM29.2857 38.7203L29.3007 38.7901C30.7402 38.643 32.1797 37.8222 32.1797 36.7581C32.1797 36.3478 32.0014 35.8685 31.6495 35.3346C30.9805 34.3611 30.5244 33.5234 30.5244 32.6753C30.5244 31.6215 31.1841 30.8018 32.2276 30.4423L32.2116 30.3735C30.8566 30.4763 29.5241 31.1819 29.5241 32.1932C29.5241 32.5894 29.7061 33.0809 30.0505 33.6167C30.7825 34.7884 31.1804 35.4252 31.1804 36.278C31.1804 37.4836 30.3395 38.3383 29.2857 38.7203Z" fill="white"/>
<path d="M33.5798 42.923C33.3903 42.8456 33.3021 42.7409 33.3021 42.6107C33.3021 42.5211 33.3396 42.4296 33.4025 42.3391L35.3872 39.309C35.3497 39.2694 35.3243 39.2052 35.2868 39.1269L32.923 33.6262C32.8845 33.5347 32.8601 33.4564 32.8601 33.3922C32.8601 33.2102 33.0121 33.0932 33.2017 33.0413L35.2108 32.429C35.2614 32.4168 35.3121 32.4036 35.3628 32.4036C35.5899 32.4036 35.755 32.5715 35.8433 32.7932L37.3475 36.2921C38.0935 35.1346 38.8133 33.9771 39.4326 32.9762C39.5086 32.846 39.5968 32.7687 39.7367 32.7687C39.8127 32.7687 39.9262 32.7941 40.0529 32.8724L41.9363 33.8743C42.0874 33.9516 42.1634 34.0422 42.1634 34.1601C42.1634 34.3554 41.2024 37.0213 36.0328 43.4833C35.9061 43.6267 35.7926 43.705 35.6415 43.705C35.5786 43.705 35.5017 43.6928 35.4144 43.6532L33.5817 42.9249L33.5798 42.923Z" fill="white"/>
<path d="M35.6406 45.0814C35.3741 45.0814 35.1094 45.0239 34.8551 44.9097L33.0628 44.1994C32.3534 43.9097 31.9311 43.3154 31.9311 42.6098C31.9311 42.3523 31.9921 41.9589 32.282 41.5447L33.822 39.192L31.6646 34.1705C31.5857 33.9818 31.4891 33.7111 31.4891 33.3903C31.4891 32.5951 32.0193 31.9357 32.8404 31.7102L34.8795 31.0904C34.9715 31.0668 35.1432 31.0244 35.3619 31.0244C36.1332 31.0244 36.8042 31.5046 37.1139 32.2772L37.5784 33.3573C37.8186 32.9724 38.0494 32.6007 38.2671 32.2479C38.7476 31.4234 39.8352 31.1499 40.7229 31.6696L42.5753 32.6545C43.1665 32.9554 43.5325 33.5224 43.5325 34.1592C43.5325 35.1922 41.5196 38.8213 37.0998 44.3465L37.0547 44.4003C36.6531 44.8531 36.1773 45.0823 35.6396 45.0823L35.6406 45.0814ZM34.5548 43.0862L34.5492 43.0956C34.5492 43.0956 34.552 43.0909 34.5548 43.0862ZM35.9014 42.3626L35.9165 42.3683C35.9165 42.3683 35.9089 42.3645 35.9014 42.3626ZM35.208 42.0872L35.344 42.1409C38.5252 38.1213 39.9075 35.7648 40.4705 34.6525L40.1214 34.4667C39.6109 35.2884 39.061 36.1638 38.4971 37.0393L37.1045 39.2014L37.1017 39.1948L35.208 42.0862V42.0872ZM36.5058 38.4883L37.0332 39.0382L34.857 33.9762L34.5999 34.0545L36.5048 38.4883H36.5058ZM36.5442 38.5779V38.5788C36.5442 38.5788 36.5442 38.5788 36.5442 38.5779ZM41.2954 35.0922C41.3019 35.0959 41.3085 35.0988 41.3151 35.1025L41.2954 35.0922ZM33.6268 34.3507L33.5986 34.3592C33.608 34.3563 33.6174 34.3535 33.6268 34.3507ZM40.615 33.6715C40.6094 33.6809 40.6038 33.6903 40.5972 33.6998C40.6028 33.6903 40.6094 33.6809 40.615 33.6715ZM34.5839 33.3394C34.5858 33.3451 34.5886 33.3507 34.5914 33.3573L34.5839 33.3394Z" fill="white"/>
<path d="M42.3558 40.1927C42.078 40.1927 41.9514 40.1408 41.8753 39.9191L41.3188 38.4114C41.3066 38.3718 41.2935 38.3331 41.2935 38.3067C41.2935 38.1114 41.5459 38.0869 41.698 38.0869C42.4441 38.0727 42.7979 37.7086 42.7979 37.3972C42.7979 37.2274 42.6336 37.0199 42.4563 36.7849L42.1146 36.3953C41.5581 35.7453 41.331 35.1858 41.331 34.6914C41.331 33.2215 43.391 32.4423 45.0474 32.4423C45.5401 32.4423 45.6668 32.4942 45.756 32.7281L46.3247 34.2358C46.35 34.2876 46.35 34.3273 46.35 34.3659C46.35 34.5094 46.2111 34.5612 46.046 34.5612H45.9953C45.237 34.5612 44.9461 34.8216 44.9461 35.082C44.9461 35.3018 45.1356 35.55 45.6152 36.0962C46.197 36.7463 46.4495 37.3312 46.4495 37.8256C46.4495 39.3596 44.1868 40.1927 42.4929 40.1927H42.354H42.3558Z" fill="white"/>
<path d="M42.4949 41.5712H42.356C41.1678 41.5712 40.7333 40.8174 40.5794 40.3673L40.0342 38.8899C39.9835 38.7361 39.9234 38.5465 39.9234 38.3059C39.9234 37.7578 40.2143 37.204 40.7774 36.9143C40.2341 36.169 39.9619 35.4246 39.9619 34.6906C39.9619 32.3348 42.5831 31.0631 45.0494 31.0631C45.4727 31.0631 46.5951 31.0631 47.039 32.2377L47.5946 33.7113C47.7081 33.9802 47.7222 34.2104 47.7222 34.3651C47.7222 34.8501 47.4848 35.3548 47.0315 35.6586C47.5561 36.3766 47.8236 37.1049 47.8236 37.8247C47.8236 40.1692 45.1151 41.5702 42.4958 41.5702L42.4949 41.5712ZM41.7384 39.4645C41.7338 39.4645 41.7281 39.4645 41.7234 39.4645C41.7234 39.4645 41.7328 39.4645 41.7384 39.4645ZM43.1499 39.4097L43.1612 39.4409C43.1574 39.4305 43.1537 39.4201 43.1499 39.4097ZM44.0002 33.9453C43.2128 34.1378 42.7032 34.5048 42.7032 34.6906C42.7032 34.8246 42.8224 35.1067 43.1556 35.4954L43.5497 35.9511C43.8275 36.319 44.1701 36.7709 44.1701 37.3955C44.1701 37.8398 44.0058 38.2899 43.683 38.6559C44.5023 38.4399 45.0804 38.0502 45.0804 37.8238C45.0804 37.7313 44.98 37.4436 44.598 37.0162C44.0462 36.3879 43.5769 35.8539 43.5769 35.0793C43.5769 34.7501 43.6877 34.3142 44.0011 33.9425L44.0002 33.9453Z" fill="white"/>
<path d="M50.234 39.7372C50.1326 39.9853 50.0191 40.1145 49.8295 40.1145C49.791 40.1145 49.7535 40.1145 49.716 40.1023C47.6804 39.6862 46.9728 38.5418 46.9099 35.2511L45.962 35.1992C45.8222 35.1869 45.7086 35.0558 45.7086 34.9133L45.8607 32.7538C45.8738 32.6104 45.9874 32.4943 46.1394 32.4943L46.9484 32.5462C46.9737 32.0518 46.9991 31.5188 47.0366 30.9584C47.0497 30.8027 47.0751 30.5555 47.4035 30.5555H47.4542L49.8436 30.6716C50.0585 30.6857 50.1599 30.815 50.1599 31.0357C50.1345 31.582 50.097 32.1537 50.0594 32.7L50.9322 32.7519C51.0711 32.7519 51.1847 32.8821 51.1847 33.0387L51.0327 35.1973C51.0205 35.3275 50.9191 35.4454 50.7802 35.4454H50.7549L49.9205 35.4058C49.9205 36.5889 50.0716 37.487 50.6282 37.7333C50.7671 37.7974 50.9191 37.8512 50.9191 37.9937C50.9191 38.0191 50.9069 38.0578 50.8938 38.0974L50.2368 39.7353L50.234 39.7372Z" fill="white"/>
<path d="M49.8291 41.4919C49.7531 41.4919 49.5936 41.4919 49.3947 41.4419C46.7005 40.8721 45.8278 39.0854 45.6007 36.5251C44.8575 36.3317 44.3367 35.6714 44.3367 34.9129L44.3405 34.8158L44.4925 32.6564C44.5553 31.9442 45.0217 31.3847 45.6467 31.1895C45.6533 31.0829 45.6598 30.9744 45.6674 30.8659C45.7659 29.6924 46.6095 29.1782 47.4025 29.1782L47.5188 29.1801L49.908 29.2961C50.8558 29.3565 51.5286 30.0886 51.5286 31.0366C51.522 31.1885 51.5145 31.3366 51.507 31.4838C52.1179 31.7234 52.5524 32.3309 52.5524 33.0403L52.5486 33.1375L52.3966 35.295C52.3384 35.9053 51.9912 36.4006 51.5051 36.6496C52.1808 37.0836 52.2859 37.6619 52.2859 37.9939C52.2859 38.2383 52.2239 38.4307 52.1939 38.5232L52.1611 38.6137L51.5004 40.2589C51.0472 41.3712 50.1792 41.491 49.8273 41.491L49.8291 41.4919ZM48.9621 39.2194C48.9621 39.2194 48.9611 39.2212 48.9602 39.2231L50.2327 39.7363L48.9611 39.2203L48.9621 39.2194ZM48.2479 33.9431H48.2545L48.2789 35.2233C48.323 37.5204 48.6759 38.2326 49.2389 38.5279L49.2868 38.4081C48.5454 37.5147 48.5454 36.0959 48.5454 35.4072V33.963L48.5933 33.9648L48.6871 32.6064C48.7012 32.4064 48.7153 32.2026 48.7284 31.9989L48.3474 31.98C48.3408 32.1083 48.3343 32.2338 48.3277 32.3583L48.2461 33.9431H48.2479Z" fill="white"/>
<path d="M54.9006 40.2191C52.0317 40.2191 50.5902 38.2029 50.5902 36.2255C50.5902 34.3659 51.8675 32.4149 54.7486 32.4149C57.8841 32.4149 58.023 35.2886 58.023 35.7179C58.023 36.316 57.7827 36.8104 57.0366 37.0708C56.4426 37.2784 55.5069 37.4218 54.85 37.4482C54.6472 37.4482 54.5844 37.3567 54.5337 37.201C54.3817 36.7708 54.1414 35.9264 54.1414 35.8745C54.1414 35.7311 54.2428 35.666 54.407 35.6264C55.0639 35.4707 55.1531 35.4452 55.1531 35.2632C55.1531 35.1452 54.9128 34.7292 54.3826 34.7292C53.7754 34.7292 53.2705 35.2754 53.2705 36.0811C53.2705 37.0048 53.9274 38.0454 55.5078 38.0454C55.5961 38.0454 55.6974 38.0454 55.7866 38.0331H55.8119C55.9893 38.0331 56.2032 38.1492 56.2032 38.3709C56.2032 38.5011 55.8748 39.3851 55.6852 39.8266C55.5848 40.0351 55.4196 40.2172 55.0536 40.2172H54.9016L54.9006 40.2191Z" fill="white"/>
<path d="M55.0528 41.5976H54.9008C51.1703 41.5976 49.2192 38.8956 49.2192 36.2256C49.2192 33.7264 50.9497 31.0367 54.7497 31.0367C57.9414 31.0367 59.3952 33.4632 59.3952 35.718C59.3952 36.9521 58.7335 37.904 57.5745 38.3418C57.5745 38.3521 57.5745 38.3616 57.5745 38.3719C57.5745 38.8116 57.231 39.7031 56.9438 40.3739C56.56 41.1721 55.8805 41.5976 55.0528 41.5976ZM56.3122 34.4746C56.4493 34.7284 56.5243 35.001 56.5243 35.2642C56.5243 35.4746 56.4943 35.6567 56.4399 35.8161C56.4924 35.8011 56.5422 35.785 56.5872 35.769C56.6135 35.7595 56.6341 35.7511 56.651 35.7444C56.651 35.736 56.651 35.7284 56.651 35.718C56.651 35.3548 56.5882 34.868 56.3122 34.4736V34.4746Z" fill="white"/>
<path d="M63.861 38.6826L63.8319 38.6901C63.6884 38.7269 63.5392 38.6222 63.4838 38.4628L62.5538 35.3695C62.1053 33.8894 61.6464 33.3422 60.7193 33.4988L62.3305 38.8175C62.3746 38.9948 62.2939 39.158 62.1381 39.2128L59.4759 40.0306L59.4468 40.0382C59.3032 40.075 59.154 39.9703 59.0987 39.8108L56.8014 32.1894L56.7939 32.1592C56.7527 31.996 56.839 31.8489 56.9797 31.797L57.8328 31.5329C58.5046 31.0942 59.1962 30.7923 59.8878 30.6169C60.5363 30.4527 61.1688 30.4027 61.7862 30.482C62.6195 29.8914 63.4575 29.5056 64.2655 29.3009C66.8029 28.6575 69.0757 29.832 69.9128 32.4923C70.2121 33.4413 70.5537 34.128 71.3682 34.5054C71.4733 34.5573 71.6845 34.662 71.7248 34.8252C71.7436 34.8997 71.7361 34.9959 71.6685 35.0922C71.676 35.1214 70.7517 36.6336 70.7517 36.6336C70.6306 36.8223 70.5152 36.9147 70.3716 36.9515C70.1699 37.0025 67.791 37.1166 66.8845 34.2394C66.4107 32.6564 65.9593 32.1385 65.1072 32.2291L66.6959 37.46C66.74 37.6373 66.6584 37.7996 66.5036 37.8553L63.8591 38.6845L63.861 38.6826Z" fill="white"/>
<path d="M59.3858 41.4249C58.6876 41.4249 58.0486 40.9731 57.8037 40.2618L55.4661 32.5008C55.2531 31.6527 55.7045 30.7952 56.5143 30.5008L57.2538 30.2706C57.9857 29.815 58.7589 29.4829 59.5528 29.2811C60.1872 29.1197 60.8122 29.0509 61.4202 29.0707C62.2338 28.5528 63.0765 28.1811 63.9305 27.9641C67.2533 27.1198 70.1811 28.7735 71.2209 32.0762C71.4864 32.9149 71.6647 33.1243 71.9416 33.2517C72.5581 33.5517 72.9241 33.963 73.0554 34.4865C73.1699 34.9441 73.0864 35.4308 72.8274 35.8308C72.6538 36.1553 72.3704 36.6214 71.9219 37.3534C71.5991 37.8572 71.1965 38.1628 70.7085 38.2864C70.1952 38.4156 69.1189 38.3703 68.0519 37.8015C67.9637 38.4185 67.5621 38.9335 66.9718 39.1486L64.1791 40.0222C63.8826 40.0958 63.5879 40.0863 63.3167 40.008C63.1309 40.2335 62.8851 40.4089 62.5932 40.5118L59.7874 41.3721C59.6532 41.4061 59.5181 41.4231 59.3858 41.4231V41.4249ZM58.4174 32.7951L60.1065 38.3977L60.7155 38.21L58.971 32.4555C58.8396 32.5281 58.7101 32.6055 58.5816 32.6894L58.4183 32.7951H58.4174ZM61.0233 32.0932C62.9949 32.0932 63.6189 34.1526 63.8657 34.9676L64.4897 37.0411L65.0828 36.8553L63.343 31.1329C63.0859 31.2697 62.8307 31.4282 62.5773 31.6083L62.1419 31.9168L61.6136 31.8489C61.1772 31.7923 60.7221 31.8272 60.2238 31.9536C59.8541 32.0479 59.4881 32.1866 59.1296 32.3696L60.4912 32.1394C60.678 32.1074 60.8553 32.0932 61.0224 32.0932H61.0233ZM65.294 30.8395C67.3021 30.8395 67.9252 32.9253 68.1992 33.8422C68.5971 35.1054 69.345 35.461 69.803 35.5572C69.8658 35.4535 69.9287 35.3497 69.9897 35.2488C69.239 34.6186 68.8777 33.7639 68.6074 32.9102C68.0078 31.0027 66.512 30.1527 64.6024 30.6376C64.2711 30.7216 63.9389 30.8433 63.6067 31.0008L64.9646 30.8574C65.0781 30.8452 65.1879 30.8395 65.293 30.8395H65.294Z" fill="white"/>
<path d="M17.0509 17.6136C16.8332 17.6419 16.6277 17.49 16.6014 17.2815L15.0446 4.75745C15.0183 4.54897 15.1807 4.34898 15.3984 4.31973L18.7982 3.87258C19.0168 3.84428 19.2223 3.99616 19.2486 4.20464L20.8054 16.7287C20.8317 16.9372 20.6693 17.1381 20.4507 17.1664L17.0509 17.6136ZM25.5134 16.4014C25.2938 16.4146 25.1042 16.2599 25.0779 16.0514L24.772 11.3978L21.1845 11.7081C20.9649 11.7195 20.7754 11.5657 20.751 11.3732L20.7472 11.3402L20.5323 8.51675C20.5248 8.32241 20.6872 8.12148 20.888 8.09506L20.9218 8.09035L24.5112 7.79696L24.209 3.45278C24.2024 3.25751 24.3469 3.0594 24.5646 3.0311L24.5984 3.02639L27.987 2.75941C28.2047 2.73111 28.3961 2.90092 28.4224 3.1094L29.2904 15.708C29.2998 15.9193 29.1356 16.1042 28.9179 16.1325L25.5134 16.4004V16.4014Z" fill="#F19800"/>
<path d="M33.2537 17.1181C30.3838 17.1181 28.9432 15.1019 28.9432 13.1245C28.9432 11.2649 30.2205 9.31388 33.1016 9.31388C36.2371 9.31388 36.376 12.1876 36.376 12.6169C36.376 13.215 36.1357 13.7094 35.3896 13.9698C34.7956 14.1773 33.8599 14.3208 33.203 14.3472C33.0003 14.3472 32.9374 14.2557 32.8867 14.099C32.7347 13.6698 32.4944 12.8254 32.4944 12.7735C32.4944 12.6301 32.5958 12.565 32.76 12.5254C33.4179 12.3697 33.5061 12.3442 33.5061 12.1621C33.5061 12.0442 33.2659 11.6282 32.7356 11.6282C32.1284 11.6282 31.6235 12.1744 31.6235 12.9801C31.6235 13.9037 32.2805 14.9444 33.8609 14.9444C33.9491 14.9444 34.0504 14.9444 34.1396 14.9302H34.1649C34.3423 14.9302 34.5563 15.0481 34.5563 15.2689C34.5563 15.3991 34.2278 16.2831 34.0382 16.7247C33.9378 16.9332 33.7726 17.1152 33.4066 17.1152H33.2546L33.2537 17.1181Z" fill="#FABB04"/>
<path d="M36.4044 16.857C36.2655 16.857 36.152 16.741 36.152 16.5966V5.9725C36.152 5.81684 36.2655 5.69987 36.4044 5.69987H38.9447C39.0835 5.69987 39.1971 5.81684 39.1971 5.9725V16.5966C39.1971 16.741 39.0835 16.857 38.9447 16.857H36.4044Z" fill="#F19800"/>
<path d="M43.8647 16.9221H43.8394C43.7136 16.9221 43.6123 16.8042 43.5991 16.6617L43.4724 13.9184C43.4096 12.6043 43.144 12.0581 42.3473 11.993L42.5744 16.7136C42.5744 16.8693 42.474 16.9872 42.3342 16.9994L39.9703 17.1174H39.945C39.8193 17.1174 39.7179 16.9994 39.7048 16.857L39.3885 10.095V10.0695C39.3885 9.92612 39.4899 9.82235 39.6166 9.80914L40.3748 9.77047C41.0195 9.54878 41.6519 9.44501 42.2581 9.44501C42.8268 9.44501 43.358 9.53651 43.8506 9.73084C44.6595 9.41859 45.4309 9.2752 46.1384 9.2752C48.3634 9.2752 49.9934 10.7185 50.1332 13.0864C50.1839 13.9316 50.3227 14.5684 50.9168 15.0495C50.9928 15.1137 51.1448 15.2448 51.1448 15.3872C51.1448 15.4533 51.1194 15.5306 51.0434 15.5957C51.0434 15.6212 49.969 16.6749 49.969 16.6749C49.8301 16.8051 49.7165 16.857 49.5899 16.857C49.4125 16.857 47.4287 16.4532 47.2767 13.892C47.2138 12.4883 46.9483 11.9666 46.2276 11.8628L46.4547 16.5061C46.4547 16.6617 46.3533 16.7777 46.2144 16.7919L43.8638 16.9221H43.8647Z" fill="#FABB04"/>
<path d="M54.3995 17.1181C51.5297 17.1181 50.0891 15.1019 50.0891 13.1245C50.0891 11.2649 51.3664 9.31388 54.2475 9.31388C57.383 9.31388 57.5219 12.1876 57.5219 12.6169C57.5219 13.215 57.2816 13.7094 56.5355 13.9698C55.9415 14.1773 55.0058 14.3208 54.3489 14.3472C54.1462 14.3472 54.0833 14.2557 54.0326 14.099C53.8806 13.6698 53.6403 12.8254 53.6403 12.7735C53.6403 12.6301 53.7417 12.565 53.9059 12.5254C54.5638 12.3697 54.652 12.3442 54.652 12.1621C54.652 12.0442 54.4117 11.6282 53.8815 11.6282C53.2743 11.6282 52.7694 12.1744 52.7694 12.9801C52.7694 13.9037 53.4263 14.9444 55.0067 14.9444C55.095 14.9444 55.1963 14.9444 55.2855 14.9302H55.3108C55.4882 14.9302 55.7022 15.0481 55.7022 15.2689C55.7022 15.3991 55.3737 16.2831 55.1841 16.7247C55.0837 16.9332 54.9185 17.1152 54.5525 17.1152H54.4005L54.3995 17.1181Z" fill="#F19800"/>
<path d="M61.1663 16.6361C61.065 16.8843 60.9514 17.0145 60.7619 17.0145C60.7234 17.0145 60.6858 17.0145 60.6483 17.0003C58.6127 16.5842 57.9051 15.4398 57.8422 12.1491L56.8944 12.0972C56.7545 12.0849 56.641 11.9538 56.641 11.8113L56.793 9.65274C56.8061 9.50934 56.9197 9.39235 57.0708 9.39235L57.8798 9.44519C57.9051 8.95082 57.9304 8.41777 57.968 7.85831C57.9811 7.7017 58.0065 7.45546 58.3349 7.45546H58.3856L60.775 7.57244C60.9899 7.58471 61.0913 7.71585 61.0913 7.93661C61.0659 8.48287 61.0284 9.05554 60.9908 9.60085L61.8636 9.65369C62.0025 9.65369 62.1161 9.78294 62.1161 9.93955L61.9641 12.0982C61.9519 12.2284 61.8505 12.3463 61.7116 12.3463H61.6863L60.852 12.3067C60.852 13.4897 61.003 14.3879 61.5596 14.6341C61.6985 14.6983 61.8505 14.7521 61.8505 14.8945C61.8505 14.92 61.8383 14.9587 61.8252 14.9983L61.1682 16.6361H61.1663Z" fill="#FABB04"/>
<path d="M5.03655 16.057C5.08723 15.8551 5.28429 15.708 5.48042 15.757L7.92776 16.2278C8.77795 16.1627 9.70227 16.2495 10.5919 16.474C13.1396 17.1192 15.5241 18.9267 15.7024 21.8596C15.7737 22.9813 15.6836 23.9822 15.465 24.851C14.3642 29.2386 10.0232 30.6961 5.74223 29.6112C5.04875 29.4358 4.35622 29.1943 3.67869 28.8905C3.56608 28.8282 3.44878 28.783 3.34744 28.7396C2.88105 28.4896 2.65584 28.1698 2.77408 27.5726L5.03655 16.057ZM7.04754 26.067C7.16484 26.1132 7.28496 26.1434 7.40507 26.1736C9.15425 26.617 10.9241 25.6972 11.4177 23.7265C11.4843 23.4624 12.2378 20.3889 9.44984 19.6824C9.08856 19.5908 8.69631 19.5569 8.32658 19.5616L7.04754 26.067Z" fill="#F19800"/>
<path d="M19.1505 28.8667C16.2806 28.8667 14.84 26.8505 14.84 24.8731C14.84 23.0135 16.1173 21.0625 18.9984 21.0625C22.1339 21.0625 22.2728 23.9362 22.2728 24.3655C22.2728 24.9636 22.0326 25.458 21.2865 25.7184C20.6924 25.926 19.7567 26.0694 19.0998 26.0958C18.8971 26.0958 18.8342 26.0043 18.7835 25.8477C18.6315 25.4184 18.3912 24.574 18.3912 24.5221C18.3912 24.3787 18.4926 24.3136 18.6568 24.274C19.3147 24.1183 19.4029 24.0928 19.4029 23.9108C19.4029 23.7928 19.1627 23.3768 18.6324 23.3768C18.0252 23.3768 17.5203 23.923 17.5203 24.7287C17.5203 25.6524 18.1773 26.693 19.7577 26.693C19.8459 26.693 19.9472 26.693 20.0364 26.6788H20.0617C20.2391 26.6788 20.4531 26.7968 20.4531 27.0175C20.4531 27.1477 20.1246 28.0317 19.935 28.4733C19.8346 28.6818 19.6695 28.8639 19.3034 28.8639H19.1514L19.1505 28.8667Z" fill="#FABB04"/>
<path d="M25.9173 28.3847C25.8159 28.6329 25.7024 28.7631 25.5128 28.7631C25.4743 28.7631 25.4368 28.7631 25.3992 28.7489C23.3637 28.3329 22.6561 27.1885 22.5932 23.8977L21.6453 23.8458C21.5055 23.8336 21.3919 23.7024 21.3919 23.56L21.5439 21.4004C21.5571 21.257 21.6706 21.141 21.8217 21.141L22.6307 21.1929C22.6561 20.6985 22.6814 20.1654 22.7189 19.6069C22.7321 19.4503 22.7574 19.2031 23.0859 19.2031H23.1366L25.5259 19.3192C25.7408 19.3333 25.8422 19.4626 25.8422 19.6833C25.8169 20.2296 25.7793 20.8013 25.7418 21.3476L26.6146 21.3995C26.7535 21.3995 26.867 21.5297 26.867 21.6853L26.715 23.8449C26.7028 23.9751 26.6014 24.093 26.4625 24.093H26.4372L25.6029 24.0534C25.6029 25.2365 25.754 26.1346 26.3105 26.3809C26.4494 26.445 26.6014 26.4988 26.6014 26.6413C26.6014 26.6667 26.5892 26.7054 26.5761 26.745L25.9192 28.3829L25.9173 28.3847Z" fill="#F19800"/>
<path d="M30.583 28.8667C27.714 28.8667 26.2725 26.8505 26.2725 24.8731C26.2725 23.0135 27.5498 21.0625 30.4309 21.0625C33.5664 21.0625 33.7053 23.9362 33.7053 24.3655C33.7053 24.9636 33.4651 25.458 32.719 25.7184C32.1249 25.926 31.1892 26.0694 30.5323 26.0958C30.3296 26.0958 30.2667 26.0043 30.216 25.8477C30.064 25.4184 29.8238 24.574 29.8238 24.5221C29.8238 24.3787 29.9251 24.3136 30.0893 24.274C30.7463 24.1183 30.8354 24.0928 30.8354 23.9108C30.8354 23.7928 30.5952 23.3768 30.0649 23.3768C29.4577 23.3768 28.9528 23.923 28.9528 24.7287C28.9528 25.6524 29.6098 26.693 31.1902 26.693C31.2784 26.693 31.3798 26.693 31.4689 26.6788H31.4943C31.6716 26.6788 31.8856 26.7968 31.8856 27.0175C31.8856 27.1477 31.5571 28.0317 31.3676 28.4733C31.2671 28.6818 31.102 28.8639 30.736 28.8639H30.5839L30.583 28.8667Z" fill="#FABB04"/>
<path d="M39.1826 23.4957C39.1319 23.6513 38.9931 23.7815 38.841 23.7815C38.7903 23.7815 38.7275 23.7551 38.6768 23.7155C38.4497 23.5202 38.0067 23.3777 37.5637 23.3777C37.2353 23.3777 36.1354 23.456 36.1354 24.8731C36.1354 25.7448 36.7426 26.3175 37.5637 26.3175C38.1081 26.3175 38.7397 26.0694 39.3469 25.4977C39.4229 25.4193 39.5364 25.3542 39.65 25.3542C39.7382 25.3542 39.8396 25.4061 39.9278 25.5618C40.1558 26.0043 40.3069 26.2383 40.5096 26.6675C40.5481 26.7458 40.5725 26.8373 40.5725 26.9279C40.5725 27.0836 40.5096 27.227 40.3576 27.3836C39.3337 28.3846 38.1203 28.8271 36.9819 28.8271C34.8834 28.8271 33.0252 27.3185 33.0252 25.0297C33.0252 22.1163 35.2879 20.9323 37.3742 20.9323C38.7772 20.9323 39.7879 21.505 39.7879 21.8305C39.7879 21.8559 39.7879 21.8946 39.7757 21.922L39.1817 23.4957H39.1826Z" fill="#F19800"/>
<path d="M43.9514 28.3847C43.8501 28.6329 43.7365 28.7631 43.547 28.7631C43.5085 28.7631 43.4709 28.7631 43.4334 28.7489C41.3978 28.3329 40.6902 27.1885 40.6273 23.8977L39.6795 23.8458C39.5396 23.8336 39.4261 23.7024 39.4261 23.56L39.5781 21.4004C39.5912 21.257 39.7048 21.141 39.8559 21.141L40.6649 21.1929C40.6902 20.6985 40.7155 20.1654 40.7531 19.6069C40.7662 19.4503 40.7916 19.2031 41.12 19.2031H41.1707L43.5601 19.3192C43.775 19.3333 43.8764 19.4626 43.8764 19.6833C43.851 20.2296 43.8135 20.8013 43.7759 21.3476L44.6487 21.3995C44.7876 21.3995 44.9012 21.5297 44.9012 21.6853L44.7491 23.8449C44.7369 23.9751 44.6356 24.093 44.4967 24.093H44.4714L43.637 24.0534C43.637 25.2365 43.7881 26.1346 44.3447 26.3809C44.4836 26.445 44.6356 26.4988 44.6356 26.6413C44.6356 26.6667 44.6234 26.7054 44.6103 26.745L43.9533 28.3829L43.9514 28.3847Z" fill="#FABB04"/>
<path d="M46.1273 21.4534C45.0912 21.4534 44.2569 20.5958 44.2569 19.542C44.2569 18.4881 45.0912 17.6164 46.1273 17.6164C47.1634 17.6164 47.9855 18.4749 47.9855 19.542C47.9855 20.609 47.1512 21.4534 46.1273 21.4534ZM45.3315 28.6849H45.3062C45.1673 28.6849 45.0659 28.567 45.0537 28.4245L44.7374 22.0912C44.7374 21.9355 44.8388 21.8176 44.9908 21.8053L47.5191 21.6751H47.5444C47.6711 21.6751 47.7847 21.793 47.7847 21.9232L48.101 28.2698V28.2953C48.101 28.4255 47.9874 28.5434 47.8607 28.5557L45.3324 28.6859L45.3315 28.6849Z" fill="#F19800"/>
<path d="M51.4388 28.8403C49.3789 28.8403 47.5704 27.3062 47.5704 25.0165C47.5704 22.338 49.5178 20.9455 51.742 20.9455C54.5358 20.9455 55.7371 23.1956 55.7371 24.8872C55.7371 27.4232 53.2342 28.8403 51.4388 28.8403ZM53.0437 24.8608C53.0437 24.6136 52.993 23.3523 51.7035 23.3523C50.6421 23.3523 50.3389 24.2759 50.3389 24.8608C50.3389 25.759 51.0212 26.3562 51.742 26.3562C52.6392 26.3562 53.0437 25.6024 53.0437 24.8608Z" fill="#FABB04"/>
<path d="M63.2865 24.0864C63.2865 24.8147 63.4507 25.4006 63.9697 25.895C64.0457 25.9591 64.1724 26.0903 64.1724 26.2327C64.1724 26.311 64.134 26.3884 64.0457 26.4544C64.0457 26.4799 62.7938 27.4035 62.7938 27.4035C62.668 27.5073 62.5413 27.5469 62.4278 27.5469C62.2007 27.5469 60.1773 26.8573 60.1773 24.543V24.1015C60.1773 22.7354 59.5326 22.1636 58.61 22.1117L58.3698 26.8327C58.3698 26.9629 58.2562 27.0799 58.1295 27.0799H58.1042L55.5759 26.9497C55.4239 26.9375 55.3235 26.8205 55.3235 26.6639L55.6651 19.9013C55.6782 19.7578 55.7918 19.6409 55.9175 19.6409H55.9429L57.359 19.7192C57.8517 19.6154 58.3201 19.5635 58.7752 19.5635C61.342 19.5635 63.2884 21.1749 63.2884 23.6599V24.0892L63.2865 24.0864Z" fill="#F19800"/>
<path d="M27.712 37.9166C27.6989 37.8902 27.6989 37.8524 27.6989 37.8251C27.6989 37.6298 27.8884 37.5647 27.9644 37.5647H28.0151C28.8747 37.5647 29.8103 37.0968 29.8103 36.278C29.8103 35.8478 29.5832 35.4582 28.9 34.3658C28.3811 33.5601 28.154 32.8319 28.154 32.1942C28.154 30.1395 30.4296 28.983 32.5532 28.983C33.0459 28.983 33.2992 29.0348 33.3753 29.3084L33.8172 31.2319C33.8304 31.2715 33.8304 31.3102 33.8304 31.3366C33.8304 31.5442 33.6408 31.6225 33.5648 31.6225H33.4888C32.6668 31.6225 31.8963 31.9347 31.8963 32.6762C31.8963 33.1177 32.2126 33.729 32.7934 34.5752C33.3236 35.3808 33.5517 36.1091 33.5517 36.76C33.5517 38.9194 31.0368 40.1929 28.8494 40.1929C28.7236 40.1929 28.6091 40.1929 28.4834 40.1806C28.3192 40.1806 28.1671 40.0373 28.1296 39.8684L27.713 37.9175L27.712 37.9166Z" fill="#FABB04"/>
<path d="M33.5798 42.923C33.3903 42.8456 33.3021 42.7409 33.3021 42.6107C33.3021 42.5211 33.3396 42.4296 33.4025 42.3391L35.3872 39.309C35.3497 39.2694 35.3243 39.2052 35.2868 39.1269L32.923 33.6262C32.8845 33.5347 32.8601 33.4564 32.8601 33.3922C32.8601 33.2102 33.0121 33.0932 33.2017 33.0413L35.2108 32.429C35.2614 32.4168 35.3121 32.4036 35.3628 32.4036C35.5899 32.4036 35.755 32.5715 35.8433 32.7932L37.3475 36.2921C38.0935 35.1346 38.8133 33.9771 39.4326 32.9762C39.5086 32.846 39.5968 32.7687 39.7367 32.7687C39.8127 32.7687 39.9262 32.7941 40.0529 32.8724L41.9363 33.8743C42.0874 33.9516 42.1634 34.0422 42.1634 34.1601C42.1634 34.3554 41.2024 37.0213 36.0328 43.4833C35.9061 43.6267 35.7926 43.705 35.6415 43.705C35.5786 43.705 35.5017 43.6928 35.4144 43.6532L33.5817 42.9249L33.5798 42.923Z" fill="#F19800"/>
<path d="M42.3558 40.1927C42.078 40.1927 41.9514 40.1408 41.8753 39.9191L41.3188 38.4114C41.3066 38.3718 41.2935 38.3331 41.2935 38.3067C41.2935 38.1114 41.5459 38.0869 41.698 38.0869C42.4441 38.0727 42.7979 37.7086 42.7979 37.3972C42.7979 37.2274 42.6336 37.0199 42.4563 36.7849L42.1146 36.3953C41.5581 35.7453 41.331 35.1858 41.331 34.6914C41.331 33.2215 43.391 32.4423 45.0474 32.4423C45.5401 32.4423 45.6668 32.4942 45.756 32.7281L46.3247 34.2358C46.35 34.2876 46.35 34.3273 46.35 34.3659C46.35 34.5094 46.2111 34.5612 46.046 34.5612H45.9953C45.237 34.5612 44.9461 34.8216 44.9461 35.082C44.9461 35.3018 45.1356 35.55 45.6152 36.0962C46.197 36.7463 46.4495 37.3312 46.4495 37.8256C46.4495 39.3596 44.1868 40.1927 42.4929 40.1927H42.354H42.3558Z" fill="#FABB04"/>
<path d="M50.234 39.7372C50.1326 39.9853 50.0191 40.1145 49.8295 40.1145C49.791 40.1145 49.7535 40.1145 49.716 40.1023C47.6804 39.6862 46.9728 38.5418 46.9099 35.2511L45.962 35.1992C45.8222 35.1869 45.7086 35.0558 45.7086 34.9133L45.8607 32.7538C45.8738 32.6104 45.9874 32.4943 46.1394 32.4943L46.9484 32.5462C46.9737 32.0518 46.9991 31.5188 47.0366 30.9584C47.0497 30.8027 47.0751 30.5555 47.4035 30.5555H47.4542L49.8436 30.6716C50.0585 30.6857 50.1599 30.815 50.1599 31.0357C50.1345 31.582 50.097 32.1537 50.0594 32.7L50.9322 32.7519C51.0711 32.7519 51.1847 32.8821 51.1847 33.0387L51.0327 35.1973C51.0205 35.3275 50.9191 35.4454 50.7802 35.4454H50.7549L49.9205 35.4058C49.9205 36.5889 50.0716 37.487 50.6282 37.7333C50.7671 37.7974 50.9191 37.8512 50.9191 37.9937C50.9191 38.0191 50.9069 38.0578 50.8938 38.0974L50.2368 39.7353L50.234 39.7372Z" fill="#F19800"/>
<path d="M54.9006 40.2191C52.0317 40.2191 50.5902 38.2029 50.5902 36.2255C50.5902 34.3659 51.8675 32.4149 54.7486 32.4149C57.8841 32.4149 58.023 35.2886 58.023 35.7179C58.023 36.316 57.7827 36.8104 57.0366 37.0708C56.4426 37.2784 55.5069 37.4218 54.85 37.4482C54.6472 37.4482 54.5844 37.3567 54.5337 37.201C54.3817 36.7708 54.1414 35.9264 54.1414 35.8745C54.1414 35.7311 54.2428 35.666 54.407 35.6264C55.0639 35.4707 55.1531 35.4452 55.1531 35.2632C55.1531 35.1452 54.9128 34.7292 54.3826 34.7292C53.7754 34.7292 53.2705 35.2754 53.2705 36.0811C53.2705 37.0048 53.9274 38.0454 55.5078 38.0454C55.5961 38.0454 55.6974 38.0454 55.7866 38.0331H55.8119C55.9893 38.0331 56.2032 38.1492 56.2032 38.3709C56.2032 38.5011 55.8748 39.3851 55.6852 39.8266C55.5848 40.0351 55.4196 40.2172 55.0536 40.2172H54.9016L54.9006 40.2191Z" fill="#FABB04"/>
<path d="M63.861 38.6826L63.8319 38.6901C63.6884 38.7269 63.5392 38.6222 63.4838 38.4628L62.5538 35.3695C62.1053 33.8894 61.6464 33.3422 60.7193 33.4988L62.3305 38.8175C62.3746 38.9948 62.2939 39.158 62.1381 39.2128L59.4759 40.0306L59.4468 40.0382C59.3032 40.075 59.154 39.9703 59.0987 39.8108L56.8014 32.1894L56.7939 32.1592C56.7527 31.996 56.839 31.8489 56.9797 31.797L57.8328 31.5329C58.5046 31.0942 59.1962 30.7923 59.8878 30.6169C60.5363 30.4527 61.1688 30.4027 61.7862 30.482C62.6195 29.8914 63.4575 29.5056 64.2655 29.3009C66.8029 28.6575 69.0757 29.832 69.9128 32.4923C70.2121 33.4413 70.5537 34.128 71.3682 34.5054C71.4733 34.5573 71.6845 34.662 71.7248 34.8252C71.7436 34.8997 71.7361 34.9959 71.6685 35.0922C71.676 35.1214 70.7517 36.6336 70.7517 36.6336C70.6306 36.8223 70.5152 36.9147 70.3716 36.9515C70.1699 37.0025 67.791 37.1166 66.8845 34.2394C66.4107 32.6564 65.9593 32.1385 65.1072 32.2291L66.6959 37.46C66.74 37.6373 66.6584 37.7996 66.5036 37.8553L63.8591 38.6845L63.861 38.6826Z" fill="#F19800"/>
</svg>
